<svg width="1609" height="718" viewBox="0 0 1609 718" fill="none" xmlns="http://www.w3.org/2000/svg">
<mask id="mask0_131_193" style="mask-type:alpha" maskUnits="userSpaceOnUse" x="0" y="0" width="1609" height="718">
<path d="M0 0H1608.91V718H0V0Z" fill="url(#paint0_linear_131_193)"/>
</mask>
<g mask="url(#mask0_131_193)">
<path fill-rule="evenodd" clip-rule="evenodd" d="M805.133 -27C805.133 -27.5523 804.685 -28 804.133 -28C803.581 -28 803.133 -27.5523 803.133 -27V31H613.713L625.764 -11.9986C625.913 -12.5304 625.602 -13.0823 625.071 -13.2314C624.539 -13.3804 623.987 -13.0701 623.838 -12.5383L611.636 31H470.017L493.012 -11.5243C493.275 -12.0101 493.094 -12.6169 492.608 -12.8796C492.123 -13.1423 491.516 -12.9615 491.253 -12.4757L467.743 31H330.905L354.917 0.620096C355.26 0.186811 355.186 -0.442059 354.753 -0.784525C354.32 -1.12699 353.691 -1.05337 353.348 -0.620081L328.356 31H-3.52051C-4.0728 31 -4.52051 31.4477 -4.52051 32C-4.52051 32.5523 -4.0728 33 -3.52051 33H326.775L277.771 95H120.465L139.379 55.3416C139.617 54.8431 139.406 54.2462 138.907 54.0085C138.409 53.7708 137.812 53.9821 137.574 54.4806L118.249 95H-3.52051C-4.0728 95 -4.52051 95.4477 -4.52051 96C-4.52051 96.5523 -4.0728 97 -3.52051 97H117.296L81.0491 173H3.13281C2.58052 173 2.13281 173.448 2.13281 174C2.13281 174.552 2.58052 175 3.13281 175H80.0952L35.741 268H-3.52051C-4.0728 268 -4.52051 268.448 -4.52051 269C-4.52051 269.552 -4.0728 270 -3.52051 270H34.7872L-124.457 603.897L-161.202 650.386C-161.544 650.819 -161.471 651.448 -161.037 651.79C-160.604 652.133 -159.975 652.059 -159.633 651.626L-128.336 612.029L-179.279 718.845C-179.517 719.344 -179.306 719.941 -178.807 720.178C-178.309 720.416 -177.712 720.205 -177.474 719.706L-122.749 604.961L28.9754 413H261.174L163.838 593H-3.52051C-4.0728 593 -4.52051 593.448 -4.52051 594C-4.52051 594.552 -4.0728 595 -3.52051 595H162.757L113.494 686.099C113.231 686.585 113.412 687.192 113.898 687.454C114.384 687.717 114.991 687.536 115.253 687.05L165.03 595H453.567L419.17 717.73C419.021 718.262 419.331 718.814 419.863 718.963C420.395 719.112 420.947 718.802 421.096 718.27L455.644 595H803.133V718C803.133 718.552 803.581 719 804.133 719C804.685 719 805.133 718.552 805.133 718V595H1159.93L1199.59 721.98C1199.76 722.508 1200.32 722.802 1200.85 722.637C1201.37 722.472 1201.67 721.911 1201.5 721.384L1162.03 595H1438.79L1496.79 710.709C1497.04 711.202 1497.64 711.402 1498.13 711.154C1498.63 710.907 1498.83 710.306 1498.58 709.812L1441.03 595H1621.82C1622.37 595 1622.82 594.552 1622.82 594C1622.82 593.448 1622.37 593 1621.82 593H1440.02L1349.79 413H1580.6L1744.54 668.872C1744.84 669.337 1745.46 669.472 1745.92 669.174C1746.39 668.876 1746.52 668.258 1746.23 667.793L1582.98 413H1621.82C1622.37 413 1622.82 412.552 1622.82 412C1622.82 411.448 1622.37 411 1621.82 411H1581.7L1491.36 270H1595.27L1771.78 719.72C1771.98 720.221 1772.57 720.479 1773.1 720.295C1773.64 720.111 1773.91 719.556 1773.72 719.054L1597.47 270H1621.82C1622.37 270 1622.82 269.552 1622.82 269C1622.82 268.448 1622.37 268 1621.82 268H1596.68L1560.18 175H1628.47C1629.03 175 1629.47 174.552 1629.47 174C1629.47 173.448 1629.03 173 1628.47 173H1559.39L1529.56 97H1621.82C1622.37 97 1622.82 96.5523 1622.82 96C1622.82 95.4477 1622.37 95 1621.82 95H1528.78L1505.89 36.6928C1505.7 36.1913 1505.1 35.9337 1504.57 36.1176C1504.04 36.3014 1503.76 36.857 1503.96 37.3586L1526.58 95H1379.24L1339.51 33H1621.82C1622.37 33 1622.82 32.5523 1622.82 32C1622.82 31.4477 1622.37 31 1621.82 31H1338.23L1310.97 -11.5395C1310.68 -12.0045 1310.06 -12.1399 1309.59 -11.842C1309.13 -11.5441 1308.99 -10.9256 1309.29 -10.4605L1335.85 31H1158.31L1137.03 -11.4481C1136.78 -11.9419 1136.18 -12.1415 1135.68 -11.894C1135.19 -11.6465 1134.99 -11.0456 1135.24 -10.5519L1156.07 31H985.863L976.087 -0.298136C975.923 -0.825304 975.362 -1.11917 974.835 -0.954514C974.307 -0.789854 974.014 -0.229017 974.178 0.298151L983.768 31H805.133V-27ZM1437.79 593L1347.56 413H1105.18L1161.4 593H1437.79ZM1159.31 593L1103.09 413H805.133V593H1159.31ZM803.133 593V413H506.652L456.204 593H803.133ZM454.127 593L504.575 413H263.448L166.112 593H454.127ZM-3.52051 411H28.0069L139.452 270H37.003L-118.87 596.828L26.4261 413H-3.52051C-4.0728 413 -4.52051 412.552 -4.52051 412C-4.52051 411.448 -4.0728 411 -3.52051 411ZM262.256 411H30.5562L142.002 270H338.503L262.256 411ZM505.135 411H264.53L340.776 270H544.653L505.135 411ZM803.133 411H507.212L546.73 270H803.133V411ZM1102.46 411H805.133V270H1058.42L1102.46 411ZM1346.55 411H1104.56L1060.51 270H1275.87L1346.55 411ZM1579.32 411H1348.79L1278.11 270H1488.98L1579.32 411ZM803.133 33H613.152L595.776 95H803.133V33ZM611.075 33H468.936L435.409 95H593.699L611.075 33ZM466.662 33H329.325L280.32 95H433.135L466.662 33ZM805.133 33H984.393L1003.76 95H805.133V33ZM986.488 33L1005.85 95H1188.15L1157.07 33H986.488ZM1159.31 33L1190.39 95H1376.86L1337.14 33H1159.31ZM595.215 97H803.133V173H573.915L595.215 97ZM434.327 97H593.138L571.838 173H393.23L434.327 97ZM278.739 97H432.053L390.956 173H218.67L278.739 97ZM119.511 97H276.19L216.12 173H83.2649L119.511 97ZM1380.52 97H1527.37L1557.2 173H1429.21L1380.52 97ZM1191.39 97H1378.14L1426.83 173H1229.49L1191.39 97ZM1006.48 97H1189.15L1227.25 173H1030.22L1006.48 97ZM805.133 97H1004.38L1028.12 173H805.133V97ZM803.133 175H573.355L547.29 268H803.133V175ZM571.278 175H392.148L341.858 268H545.213L571.278 175ZM389.874 175H217.089L143.582 268H339.584L389.874 175ZM214.539 175H82.3111L37.9568 268H141.033L214.539 175ZM805.133 175H1028.75L1057.79 268H805.133V175ZM1030.84 175L1059.89 268H1274.87L1228.25 175H1030.84ZM1230.49 175L1277.11 268H1487.7L1428.12 175H1230.49ZM1430.49 175L1490.08 268H1594.48L1557.98 175H1430.49Z" fill="#05E774" fill-opacity="0.2"/>
</g>
<defs>
<linearGradient id="paint0_linear_131_193" x1="804.456" y1="0" x2="804.456" y2="718" gradientUnits="userSpaceOnUse">
<stop offset="0.33125" stop-color="#0B0245"/>
<stop offset="1" stop-color="#090D55"/>
</linearGradient>
</defs>
</svg>
