<svg width="1609" height="718" viewBox="0 0 1609 718" fill="none" xmlns="http://www.w3.org/2000/svg">
<mask id="mask0_131_193" style="mask-type:alpha" maskUnits="userSpaceOnUse" x="0" y="0" width="1609" height="718">
<path d="M0 0H1608.91V718H0V0Z" fill="url(#paint0_linear_131_193)"/>
</mask>
<g mask="url(#mask0_131_193)">
<path fill-rule="evenodd" clip-rule="evenodd" d="M805.132 -27C805.132 -27.5523 804.684 -28 804.132 -28C803.58 -28 803.132 -27.5523 803.132 -27V31H613.711L625.762 -11.9986C625.911 -12.5304 625.601 -13.0823 625.069 -13.2314C624.537 -13.3804 623.985 -13.0701 623.836 -12.5383L611.634 31H469.565L493.007 -11.5172C493.274 -12.0008 493.098 -12.6091 492.614 -12.8757C492.131 -13.1424 491.522 -12.9665 491.256 -12.4828L467.281 31H330.904L354.916 0.620089C355.259 0.186804 355.185 -0.442066 354.752 -0.784533C354.318 -1.127 353.69 -1.05337 353.347 -0.620089L328.355 31H187.455L211.467 0.620089C211.81 0.186804 211.736 -0.442066 211.303 -0.784533C210.87 -1.127 210.241 -1.05337 209.898 -0.620089L184.906 31H-3.52063C-4.07291 31 -4.52063 31.4477 -4.52063 32C-4.52063 32.5523 -4.07291 33 -3.52063 33H183.325L134.321 95H-3.52063C-4.07291 95 -4.52063 95.4477 -4.52063 96C-4.52063 96.5523 -4.07291 97 -3.52063 97H132.74L72.6704 173H3.13269C2.58041 173 2.13269 173.448 2.13269 174C2.13269 174.552 2.58041 175 3.13269 175H71.0896L-2.41687 268H-3.52063C-4.07291 268 -4.52063 268.448 -4.52063 269C-4.52063 269.407 -4.27771 269.757 -3.92899 269.913L-304.652 650.386C-304.994 650.819 -304.921 651.448 -304.487 651.79C-304.054 652.133 -303.425 652.059 -303.083 651.626L-1.44836 270H139.451L28.0056 411H-3.52063C-4.07291 411 -4.52063 411.448 -4.52063 412C-4.52063 412.552 -4.07291 413 -3.52063 413H26.4249L-161.203 650.386C-161.545 650.819 -161.472 651.448 -161.039 651.79C-160.605 652.133 -159.976 652.059 -159.634 651.626L28.9742 413H256.666L157.423 593H-3.52063C-4.07291 593 -4.52063 593.448 -4.52063 594C-4.52063 594.552 -4.07291 595 -3.52063 595H156.32L83.2571 727.517C82.9905 728.001 83.1664 728.609 83.65 728.876C84.1337 729.142 84.7419 728.966 85.0086 728.483L158.604 595H453.565L419.168 717.73C419.019 718.262 419.33 718.814 419.862 718.963C420.393 719.112 420.945 718.802 421.094 718.27L455.642 595H803.132V718C803.132 718.552 803.58 719 804.132 719C804.684 719 805.132 718.552 805.132 718V595H1159.93L1199.59 721.98C1199.76 722.508 1200.32 722.802 1200.85 722.637C1201.37 722.472 1201.67 721.911 1201.5 721.384L1162.03 595H1440.05L1509.24 732.45C1509.49 732.943 1510.09 733.142 1510.58 732.893C1511.08 732.645 1511.27 732.044 1511.03 731.55L1442.29 595H1621.82C1622.37 595 1622.82 594.552 1622.82 594C1622.82 593.448 1622.37 593 1621.82 593H1441.28L1350.68 413H1580.6L1744.54 668.872C1744.84 669.337 1745.46 669.472 1745.92 669.174C1746.39 668.876 1746.52 668.258 1746.23 667.793L1582.98 413H1621.82C1622.37 413 1622.82 412.552 1622.82 412C1622.82 411.448 1622.37 411 1621.82 411H1581.7L1491.36 270H1621.82C1621.87 270 1621.92 269.996 1621.98 269.988L1877.54 668.872C1877.84 669.337 1878.46 669.472 1878.92 669.174C1879.39 668.876 1879.52 668.258 1879.23 667.793L1563.49 175H1628.47C1629.03 175 1629.47 174.552 1629.47 174C1629.47 173.448 1629.03 173 1628.47 173H1562.21L1513.52 97H1621.82C1622.37 97 1622.82 96.5523 1622.82 96C1622.82 95.4477 1622.37 95 1621.82 95H1512.24L1472.51 33H1621.82C1622.37 33 1622.82 32.5523 1622.82 32C1622.82 31.4477 1622.37 31 1621.82 31H1471.23L1443.97 -11.5395C1443.68 -12.0045 1443.06 -12.1399 1442.59 -11.842C1442.13 -11.5441 1441.99 -10.9256 1442.29 -10.4605L1468.85 31H1338.23L1310.97 -11.5395C1310.68 -12.0045 1310.06 -12.1399 1309.59 -11.842C1309.13 -11.5441 1308.99 -10.9256 1309.29 -10.4605L1335.85 31H1158.39L1137.03 -11.4496C1136.78 -11.9429 1136.18 -12.1415 1135.68 -11.8932C1135.19 -11.6449 1134.99 -11.0437 1135.24 -10.5504L1156.15 31H985.863L976.087 -0.298136C975.923 -0.825304 975.362 -1.11917 974.835 -0.954514C974.307 -0.789854 974.014 -0.229017 974.178 0.298151L983.768 31H805.132V-27ZM1439.05 593L1348.44 413H1105.18L1161.4 593H1439.05ZM1159.31 593L1103.09 413H805.132V593H1159.31ZM803.132 593V413H506.65L456.203 593H803.132ZM454.126 593L504.573 413H258.95L159.707 593H454.126ZM257.769 411H30.555L142 270H335.509L257.769 411ZM505.134 411H260.053L337.793 270H544.651L505.134 411ZM803.132 411H507.211L546.728 270H803.132V411ZM1102.46 411H805.132V270H1058.42L1102.46 411ZM1347.43 411H1104.56L1060.51 270H1276.46L1347.43 411ZM1579.32 411H1349.67L1278.7 270H1488.98L1579.32 411ZM803.132 33H613.151L595.774 95H803.132V33ZM611.074 33H468.463L434.279 95H593.697L611.074 33ZM466.179 33H329.323L280.319 95H431.995L466.179 33ZM326.774 33H185.875L136.87 95H277.77L326.774 33ZM805.132 33H984.393L1003.76 95H805.132V33ZM986.488 33L1005.85 95H1188.37L1157.16 33H986.488ZM1159.4 33L1190.61 95H1376.86L1337.14 33H1159.4ZM1339.51 33L1379.24 95H1509.86L1470.14 33H1339.51ZM595.214 97H803.132V173H573.914L595.214 97ZM433.176 97H593.137L571.837 173H391.274L433.176 97ZM278.738 97H430.892L388.99 173H218.668L278.738 97ZM135.29 97H276.189L216.119 173H75.2197L135.29 97ZM1380.52 97H1511.14L1559.83 173H1429.21L1380.52 97ZM1191.62 97H1378.14L1426.83 173H1229.87L1191.62 97ZM1006.48 97H1189.38L1227.63 173H1030.22L1006.48 97ZM805.132 97H1004.38L1028.12 173H805.132V97ZM803.132 175H573.353L547.289 268H803.132V175ZM571.276 175H390.171L338.895 268H545.212L571.276 175ZM387.887 175H217.088L143.581 268H336.612L387.887 175ZM214.538 175H73.6389L0.132416 268H141.032L214.538 175ZM805.132 175H1028.75L1057.79 268H805.132V175ZM1030.84 175L1059.89 268H1275.45L1228.64 175H1030.84ZM1230.88 175L1277.69 268H1487.7L1428.12 175H1230.88ZM1430.49 175L1490.08 268H1620.7L1561.12 175H1430.49Z" fill="#05E774" fill-opacity="0.2"/>
</g>
<defs>
<linearGradient id="paint0_linear_131_193" x1="804.456" y1="0" x2="804.456" y2="718" gradientUnits="userSpaceOnUse">
<stop offset="0.33125" stop-color="#0B0245"/>
<stop offset="1" stop-color="#090D55"/>
</linearGradient>
</defs>
</svg>
