<svg width="38" height="38" viewBox="0 0 38 38" fill="none" xmlns="http://www.w3.org/2000/svg">
<path d="M38 19C38 29.4934 29.4934 38 19 38C8.50659 38 0 29.4934 0 19C0 8.50659 8.50659 0 19 0C29.4934 0 38 8.50659 38 19Z" fill="white" fill-opacity="0.54"/>
<path fill-rule="evenodd" clip-rule="evenodd" d="M19 37C28.9411 37 37 28.9411 37 19C37 9.05887 28.9411 1 19 1C9.05887 1 1 9.05887 1 19C1 28.9411 9.05887 37 19 37ZM19 38C29.4934 38 38 29.4934 38 19C38 8.50659 29.4934 0 19 0C8.50659 0 0 8.50659 0 19C0 29.4934 8.50659 38 19 38Z" fill="url(#paint0_linear_439_5)"/>
<path d="M22.5 18.634C23.1667 19.0189 23.1667 19.9811 22.5 20.366L17.25 23.3971C16.5833 23.782 15.75 23.3009 15.75 22.5311L15.75 16.4689C15.75 15.6991 16.5833 15.218 17.25 15.6029L22.5 18.634Z" fill="#89FF00"/>
<defs>
<linearGradient id="paint0_linear_439_5" x1="19" y1="0" x2="19" y2="38" gradientUnits="userSpaceOnUse">
<stop stop-color="#F2FFF8"/>
<stop offset="1" stop-color="#77DB03"/>
</linearGradient>
</defs>
</svg>
