<svg width="1610" height="718" viewBox="0 0 1610 718" fill="none" xmlns="http://www.w3.org/2000/svg">
<mask id="mask0_208_3908" style="mask-type:alpha" maskUnits="userSpaceOnUse" x="0" y="0" width="1610" height="718">
<path d="M0.867188 0H1609.78V718H0.867188V0Z" fill="url(#paint0_linear_208_3908)"/>
</mask>
<g mask="url(#mask0_208_3908)">
<path fill-rule="evenodd" clip-rule="evenodd" d="M806 -27C806 -27.5523 805.552 -28 805 -28C804.448 -28 804 -27.5523 804 -27V31H614.58L626.631 -11.9986C626.78 -12.5304 626.47 -13.0823 625.938 -13.2314C625.406 -13.3804 624.854 -13.0701 624.705 -12.5383L612.503 31H470.884L493.88 -11.5243C494.142 -12.0101 493.961 -12.6169 493.476 -12.8796C492.99 -13.1423 492.383 -12.9615 492.12 -12.4757L468.611 31H331.772L355.785 0.620096C356.127 0.186811 356.053 -0.442059 355.62 -0.784525C355.187 -1.12699 354.558 -1.05337 354.215 -0.620081L329.223 31H-2.65332C-3.20561 31 -3.65332 31.4477 -3.65332 32C-3.65332 32.5523 -3.20561 33 -2.65332 33H327.642L278.638 95H121.332L140.247 55.3416C140.484 54.8431 140.273 54.2462 139.774 54.0085C139.276 53.7708 138.679 53.9821 138.441 54.4806L119.117 95H-2.65332C-3.20561 95 -3.65332 95.4477 -3.65332 96C-3.65332 96.5523 -3.20561 97 -2.65332 97H118.163L81.9163 173H4C3.44771 173 3 173.448 3 174C3 174.552 3.44771 175 4 175H80.9624L36.6082 268H-2.65332C-3.20561 268 -3.65332 268.448 -3.65332 269C-3.65332 269.552 -3.20561 270 -2.65332 270H35.6544L-123.59 603.897L-160.335 650.386C-160.677 650.819 -160.603 651.448 -160.17 651.79C-159.737 652.133 -159.108 652.059 -158.765 651.626L-127.469 612.029L-178.412 718.845C-178.65 719.344 -178.439 719.941 -177.94 720.178C-177.442 720.416 -176.845 720.205 -176.607 719.706L-121.882 604.961L29.8426 413H262.041L164.705 593H-2.65332C-3.20561 593 -3.65332 593.448 -3.65332 594C-3.65332 594.552 -3.20561 595 -2.65332 595H163.624L114.361 686.099C114.099 686.585 114.28 687.192 114.765 687.454C115.251 687.717 115.858 687.536 116.121 687.05L165.897 595H454.434L420.037 717.73C419.888 718.262 420.198 718.814 420.73 718.963C421.262 719.112 421.814 718.802 421.963 718.27L456.511 595H804V718C804 718.552 804.448 719 805 719C805.552 719 806 718.552 806 718V595H1160.8L1200.46 721.98C1200.63 722.508 1201.19 722.802 1201.71 722.637C1202.24 722.472 1202.54 721.911 1202.37 721.384L1162.9 595H1439.66L1497.66 710.709C1497.9 711.202 1498.51 711.402 1499 711.154C1499.49 710.907 1499.69 710.306 1499.45 709.812L1441.89 595H1622.69C1623.24 595 1623.69 594.552 1623.69 594C1623.69 593.448 1623.24 593 1622.69 593H1440.89L1350.66 413H1581.47L1745.41 668.872C1745.71 669.337 1746.33 669.472 1746.79 669.174C1747.26 668.876 1747.39 668.258 1747.09 667.793L1583.85 413H1622.69C1623.24 413 1623.69 412.552 1623.69 412C1623.69 411.448 1623.24 411 1622.69 411H1582.57L1492.23 270H1596.14L1772.65 719.72C1772.84 720.221 1773.44 720.479 1773.97 720.295C1774.51 720.111 1774.78 719.556 1774.58 719.054L1598.33 270H1622.69C1623.24 270 1623.69 269.552 1623.69 269C1623.69 268.448 1623.24 268 1622.69 268H1597.55L1561.05 175H1629.34C1629.89 175 1630.34 174.552 1630.34 174C1630.34 173.448 1629.89 173 1629.34 173H1560.26L1530.43 97H1622.69C1623.24 97 1623.69 96.5523 1623.69 96C1623.69 95.4477 1623.24 95 1622.69 95H1529.65L1506.76 36.6928C1506.57 36.1913 1505.97 35.9337 1505.44 36.1176C1504.9 36.3014 1504.63 36.857 1504.83 37.3586L1527.45 95H1380.1L1340.38 33H1622.69C1623.24 33 1623.69 32.5523 1623.69 32C1623.69 31.4477 1623.24 31 1622.69 31H1339.1L1311.84 -11.5395C1311.54 -12.0045 1310.93 -12.1399 1310.46 -11.842C1310 -11.5441 1309.86 -10.9256 1310.16 -10.4605L1336.72 31H1159.17L1137.89 -11.4481C1137.65 -11.9419 1137.05 -12.1415 1136.55 -11.894C1136.06 -11.6465 1135.86 -11.0456 1136.11 -10.5519L1156.94 31H986.73L976.954 -0.298136C976.79 -0.825304 976.229 -1.11917 975.702 -0.954514C975.175 -0.789854 974.881 -0.229017 975.046 0.298151L984.635 31H806V-27ZM1438.65 593L1348.42 413H1106.05L1162.27 593H1438.65ZM1160.18 593L1103.95 413H806V593H1160.18ZM804 593V413H507.519L457.072 593H804ZM454.995 593L505.442 413H264.315L166.979 593H454.995ZM-2.65332 411H28.8741L140.319 270H37.8702L-118.003 596.828L27.2933 413H-2.65332C-3.20561 413 -3.65332 412.552 -3.65332 412C-3.65332 411.448 -3.20561 411 -2.65332 411ZM263.123 411H31.4234L142.869 270H339.37L263.123 411ZM506.003 411H265.397L341.643 270H545.52L506.003 411ZM804 411H508.08L547.597 270H804V411ZM1103.33 411H806V270H1059.29L1103.33 411ZM1347.42 411H1105.42L1061.38 270H1276.74L1347.42 411ZM1580.19 411H1349.66L1278.98 270H1489.85L1580.19 411ZM804 33H614.019L596.643 95H804V33ZM611.942 33H469.803L436.276 95H594.566L611.942 33ZM467.529 33H330.192L281.187 95H434.002L467.529 33ZM806 33H985.26L1004.63 95H806V33ZM987.355 33L1006.72 95H1189.02L1157.94 33H987.355ZM1160.17 33L1191.25 95H1377.73L1338 33H1160.17ZM596.082 97H804V173H574.782L596.082 97ZM435.194 97H594.005L572.705 173H394.097L435.194 97ZM279.607 97H432.921L391.823 173H219.537L279.607 97ZM120.379 97H277.057L216.987 173H84.1321L120.379 97ZM1381.38 97H1528.23L1558.06 173H1430.08L1381.38 97ZM1192.26 97H1379.01L1427.7 173H1230.35L1192.26 97ZM1007.35 97H1190.02L1228.12 173H1031.08L1007.35 97ZM806 97H1005.25L1028.99 173H806V97ZM804 175H574.222L548.157 268H804V175ZM572.145 175H393.015L342.725 268H546.08L572.145 175ZM390.742 175H217.956L144.449 268H340.451L390.742 175ZM215.407 175H83.1783L38.824 268H141.9L215.407 175ZM806 175H1029.61L1058.66 268H806V175ZM1031.71 175L1060.76 268H1275.74L1229.12 175H1031.71ZM1231.36 175L1277.97 268H1488.57L1428.98 175H1231.36ZM1431.36 175L1490.94 268H1595.35L1558.85 175H1431.36Z" fill="#05E774" fill-opacity="0.2"/>
</g>
<defs>
<linearGradient id="paint0_linear_208_3908" x1="805.323" y1="0" x2="805.323" y2="718" gradientUnits="userSpaceOnUse">
<stop offset="0.33125" stop-color="#0B0245"/>
<stop offset="1" stop-color="#090D55"/>
</linearGradient>
</defs>
</svg>
