<svg width="88" height="90" viewBox="0 0 88 90" fill="none" xmlns="http://www.w3.org/2000/svg">
<path d="M28.1972 88H11.0452V26.304H2.46924V13.248C5.96791 13.248 8.61324 12.608 10.4052 11.328C12.1972 10.048 13.5199 7.01866 14.3732 2.23999H28.1972V88Z" fill="white" fill-opacity="0.65"/>
<path d="M85.9162 10.56V79.68C85.9162 81.984 85.1482 83.9467 83.6122 85.568C82.0762 87.1893 80.1136 88 77.7242 88H54.1722C51.7829 88 49.7349 87.1893 48.0282 85.568C46.3216 83.9467 45.4682 81.984 45.4682 79.68V10.56C45.4682 8.17066 46.2789 6.20799 47.9002 4.67199C49.6069 3.05066 51.6976 2.23999 54.1722 2.23999H77.7242C79.9429 2.23999 81.8629 3.05066 83.4842 4.67199C85.1056 6.29332 85.9162 8.25599 85.9162 10.56ZM62.6202 19.136V70.976C62.6202 71.9147 62.9189 72.6827 63.5162 73.28C64.1136 73.8773 64.8389 74.176 65.6922 74.176C67.7402 74.176 68.7642 73.1093 68.7642 70.976V19.136C68.7642 17.088 67.7402 16.064 65.6922 16.064C63.6442 16.064 62.6202 17.088 62.6202 19.136Z" fill="white" fill-opacity="0.65"/>
<path fill-rule="evenodd" clip-rule="evenodd" d="M30.1972 90H9.04524V28.304H0.469238V11.248H2.46924C5.77771 11.248 7.93678 10.6334 9.24276 9.70052C9.73275 9.35053 10.3244 8.63318 10.9083 7.29571C11.4851 5.97464 11.9937 4.18818 12.4044 1.88841L12.6987 0.23999H30.1972V90ZM11.0452 26.304V88H28.1972V2.23999H14.3732C13.5199 7.01866 12.1972 10.048 10.4052 11.328C8.61324 12.608 5.96791 13.248 2.46924 13.248V26.304H11.0452ZM87.9162 10.56V79.68C87.9162 82.4778 86.9642 84.9378 85.0641 86.9435C83.122 88.9936 80.6199 90 77.7242 90H54.1722C51.2788 90 48.7353 88.9983 46.6507 87.018C44.5564 85.0283 43.4682 82.5455 43.4682 79.68V10.56C43.4682 7.66477 44.4743 5.16308 46.5237 3.22104M46.5247 3.22009C48.6233 1.22743 51.2148 0.23999 54.1722 0.23999H77.7242C80.4929 0.23999 82.9161 1.2754 84.8985 3.25778C86.8969 5.25622 87.9162 7.72844 87.9162 10.56M64.6202 19.136V70.976C64.6202 71.4488 64.7515 71.6869 64.9305 71.8658C65.1485 72.0838 65.3633 72.176 65.6922 72.176C66.3781 72.176 66.5413 72.0038 66.5531 71.9913C66.5759 71.9676 66.7642 71.7543 66.7642 70.976V19.136C66.7642 18.4264 66.5897 18.2538 66.5822 18.2464C66.5748 18.2389 66.4019 18.064 65.6922 18.064C64.9826 18.064 64.81 18.2386 64.8026 18.246C64.798 18.2507 64.6202 18.4203 64.6202 19.136ZM85.9162 79.68V10.56C85.9162 8.25599 85.1056 6.29332 83.4842 4.67199C81.8629 3.05066 79.9429 2.23999 77.7242 2.23999H54.1722C51.6976 2.23999 49.6069 3.05066 47.9002 4.67199C46.2789 6.20799 45.4682 8.17066 45.4682 10.56V79.68C45.4682 81.984 46.3216 83.9467 48.0282 85.568C49.7349 87.1893 51.7829 88 54.1722 88H77.7242C80.1136 88 82.0762 87.1893 83.6122 85.568C85.1482 83.9467 85.9162 81.984 85.9162 79.68ZM62.6202 70.976V19.136C62.6202 17.088 63.6442 16.064 65.6922 16.064C67.7402 16.064 68.7642 17.088 68.7642 19.136V70.976C68.7642 73.1093 67.7402 74.176 65.6922 74.176C64.8389 74.176 64.1136 73.8773 63.5162 73.28C62.9189 72.6827 62.6202 71.9147 62.6202 70.976Z" fill="url(#paint0_linear_339_4)"/>
<defs>
<linearGradient id="paint0_linear_339_4" x1="41.5002" y1="-20" x2="41.5002" y2="104" gradientUnits="userSpaceOnUse">
<stop stop-color="white" stop-opacity="0"/>
<stop offset="1" stop-color="white"/>
</linearGradient>
</defs>
</svg>
