<svg width="177" height="90" viewBox="0 0 177 90" fill="none" xmlns="http://www.w3.org/2000/svg">
<path d="M28.0718 88H10.9197V26.304H2.34375V13.248C5.84242 13.248 8.48775 12.608 10.2797 11.328C12.0717 10.048 13.3944 7.01866 14.2478 2.23999H28.0718V88Z" fill="white" fill-opacity="0.65"/>
<path d="M85.7907 10.56V79.68C85.7907 81.984 85.0227 83.9467 83.4867 85.568C81.9507 87.1893 79.9881 88 77.5987 88H54.0467C51.6574 88 49.6094 87.1893 47.9027 85.568C46.1961 83.9467 45.3427 81.984 45.3427 79.68V10.56C45.3427 8.17066 46.1534 6.20799 47.7747 4.67199C49.4814 3.05066 51.5721 2.23999 54.0467 2.23999H77.5987C79.8174 2.23999 81.7374 3.05066 83.3587 4.67199C84.9801 6.29332 85.7907 8.25599 85.7907 10.56ZM62.4948 19.136V70.976C62.4948 71.9147 62.7934 72.6827 63.3907 73.28C63.9881 73.8773 64.7134 74.176 65.5667 74.176C67.6147 74.176 68.6387 73.1093 68.6387 70.976V19.136C68.6387 17.088 67.6147 16.064 65.5667 16.064C63.5187 16.064 62.4948 17.088 62.4948 19.136Z" fill="white" fill-opacity="0.65"/>
<path d="M134.294 2.23999L124.566 41.792L136.342 88H117.782L111.254 47.296L110.998 88H93.8457V2.23999H110.998V38.976L117.142 2.23999H134.294Z" fill="white" fill-opacity="0.65"/>
<path d="M150.967 32.192H163.255V44.608H174.391V55.104H163.255V67.52H150.967V55.104H139.191V44.608H150.967V32.192Z" fill="white" fill-opacity="0.65"/>
<path fill-rule="evenodd" clip-rule="evenodd" d="M30.0718 90H8.91975V28.304H0.34375V11.248H2.34375C5.65222 11.248 7.81129 10.6334 9.11727 9.70052C9.60726 9.35053 10.1989 8.63318 10.7828 7.29571C11.3596 5.97464 11.8682 4.18818 12.2789 1.88841L12.5733 0.23999H30.0718V90ZM10.9197 26.304V88H28.0718V2.23999H14.2478C13.3944 7.01866 12.0717 10.048 10.2797 11.328C8.48775 12.608 5.84242 13.248 2.34375 13.248V26.304H10.9197ZM87.7907 10.56V79.68C87.7907 82.4778 86.8387 84.9378 84.9387 86.9435C82.9965 88.9936 80.4944 90 77.5987 90H54.0467C51.1533 90 48.6098 88.9983 46.5252 87.018C44.4309 85.0283 43.3427 82.5455 43.3427 79.68V10.56C43.3427 7.66477 44.3489 5.16308 46.3983 3.22104M46.3993 3.22009C48.4978 1.22743 51.0893 0.23999 54.0467 0.23999H77.5987C80.3674 0.23999 82.7906 1.2754 84.773 3.25778C86.7714 5.25622 87.7907 7.72844 87.7907 10.56M64.4948 19.136V70.976C64.4948 71.4488 64.626 71.6869 64.805 71.8658C65.023 72.0838 65.2378 72.176 65.5667 72.176C66.2526 72.176 66.4158 72.0038 66.4276 71.9913C66.4504 71.9676 66.6387 71.7543 66.6387 70.976V19.136C66.6387 18.4264 66.4642 18.2538 66.4567 18.2464C66.4493 18.2389 66.2764 18.064 65.5667 18.064C64.851 18.064 64.6816 18.2416 64.677 18.2462C64.6723 18.2508 64.4948 18.4203 64.4948 19.136ZM136.845 0.23999L126.627 41.7833L138.915 90H116.077L113.102 71.4496L112.985 90H91.8457V0.23999H112.998V14.8932L115.448 0.23999H136.845ZM117.142 2.23999H134.294L124.566 41.792L136.342 88H117.782L111.254 47.296L110.998 88H93.8457V2.23999H110.998V38.976L117.142 2.23999ZM148.967 30.192H165.255V42.608H176.391V57.104H165.255V69.52H148.967V57.104H137.191V42.608H148.967V30.192ZM150.967 44.608H139.191V55.104H150.967V67.52H163.255V55.104H174.391V44.608H163.255V32.192H150.967V44.608ZM85.7907 79.68V10.56C85.7907 8.25599 84.9801 6.29332 83.3587 4.67199C81.7374 3.05066 79.8174 2.23999 77.5987 2.23999H54.0467C51.5721 2.23999 49.4814 3.05066 47.7747 4.67199C46.1534 6.20799 45.3427 8.17066 45.3427 10.56V79.68C45.3427 81.984 46.1961 83.9467 47.9027 85.568C49.6094 87.1893 51.6574 88 54.0467 88H77.5987C79.9881 88 81.9508 87.1893 83.4867 85.568C85.0228 83.9467 85.7907 81.984 85.7907 79.68ZM62.4948 70.976V19.136C62.4948 17.088 63.5187 16.064 65.5667 16.064C67.6148 16.064 68.6387 17.088 68.6387 19.136V70.976C68.6387 73.1093 67.6148 74.176 65.5667 74.176C64.7134 74.176 63.9881 73.8773 63.3907 73.28C62.7934 72.6827 62.4948 71.9147 62.4948 70.976Z" fill="url(#paint0_linear_341_13)"/>
<defs>
<linearGradient id="paint0_linear_341_13" x1="85.4997" y1="-20" x2="85.4997" y2="104" gradientUnits="userSpaceOnUse">
<stop stop-color="white" stop-opacity="0"/>
<stop offset="1" stop-color="white"/>
</linearGradient>
</defs>
</svg>
