<svg width="191" height="105" viewBox="0 0 191 105" fill="none" xmlns="http://www.w3.org/2000/svg">
<path d="M2.15527 62.6161H19.3073V77.9761C19.3073 78.9147 19.6059 79.6827 20.2033 80.2801C20.8006 80.8774 21.5259 81.1761 22.3793 81.1761C24.4273 81.1761 25.4513 80.1094 25.4513 77.9761V61.5921C25.4513 58.6907 24.0433 57.2401 21.2273 57.2401H15.7233V42.2641H21.2273C22.2513 42.2641 23.1899 41.8801 24.0433 41.1121C24.9819 40.2587 25.4513 39.2347 25.4513 38.0401V26.1361C25.4513 24.0881 24.4273 23.0641 22.3793 23.0641C20.3313 23.0641 19.3073 24.0881 19.3073 26.1361V35.6081H2.15527V18.0721C2.15527 16.0241 3.05127 14.0614 4.84327 12.1841C6.72061 10.2214 8.68327 9.24006 10.7313 9.24006H34.5393C36.8433 9.24006 38.7633 10.0507 40.2993 11.6721C41.8353 13.2934 42.6033 15.3414 42.6033 17.8161V40.8561C42.6033 43.1601 42.0913 45.1654 41.0673 46.8721C40.0433 48.5787 38.7206 49.5601 37.0993 49.8161C38.6353 50.0721 39.9153 51.0534 40.9393 52.7601C42.0486 54.3814 42.6033 56.2587 42.6033 58.3921V87.1921C42.6033 89.4107 41.7926 91.2881 40.1713 92.8241C38.6353 94.2747 36.7579 95.0001 34.5393 95.0001H10.8593C8.55527 95.0001 6.50727 94.1894 4.71527 92.5681C3.00861 90.8614 2.15527 88.8987 2.15527 86.6801V62.6161Z" fill="white" fill-opacity="0.65"/>
<path d="M90.9783 17.5601V86.6801C90.9783 88.9841 90.2103 90.9467 88.6743 92.5681C87.1383 94.1894 85.1756 95.0001 82.7863 95.0001H59.2343C56.8449 95.0001 54.7969 94.1894 53.0903 92.5681C51.3836 90.9467 50.5303 88.9841 50.5303 86.6801V17.5601C50.5303 15.1707 51.3409 13.2081 52.9623 11.6721C54.6689 10.0507 56.7596 9.24006 59.2343 9.24006H82.7863C85.0049 9.24006 86.9249 10.0507 88.5463 11.6721C90.1676 13.2934 90.9783 15.2561 90.9783 17.5601ZM67.6823 26.1361V77.9761C67.6823 78.9147 67.9809 79.6827 68.5783 80.2801C69.1756 80.8774 69.9009 81.1761 70.7543 81.1761C72.8023 81.1761 73.8263 80.1094 73.8263 77.9761V26.1361C73.8263 24.0881 72.8023 23.0641 70.7543 23.0641C68.7063 23.0641 67.6823 24.0881 67.6823 26.1361Z" fill="white" fill-opacity="0.65"/>
<path d="M139.353 17.5601V86.6801C139.353 88.9841 138.585 90.9467 137.049 92.5681C135.513 94.1894 133.551 95.0001 131.161 95.0001H107.609C105.22 95.0001 103.172 94.1894 101.465 92.5681C99.7586 90.9467 98.9053 88.9841 98.9053 86.6801V17.5601C98.9053 15.1707 99.7159 13.2081 101.337 11.6721C103.044 10.0507 105.135 9.24006 107.609 9.24006H131.161C133.38 9.24006 135.3 10.0507 136.921 11.6721C138.543 13.2934 139.353 15.2561 139.353 17.5601ZM116.057 26.1361V77.9761C116.057 78.9147 116.356 79.6827 116.953 80.2801C117.551 80.8774 118.276 81.1761 119.129 81.1761C121.177 81.1761 122.201 80.1094 122.201 77.9761V26.1361C122.201 24.0881 121.177 23.0641 119.129 23.0641C117.081 23.0641 116.057 24.0881 116.057 26.1361Z" fill="white" fill-opacity="0.65"/>
<path d="M161.616 2.45605H174.032V9.24006H177.744C180.902 9.24006 183.504 10.3494 185.552 12.5681C187.686 14.7014 188.752 17.4321 188.752 20.7601V37.4001H171.6V26.1361C171.6 24.0881 170.576 23.0641 168.528 23.0641C166.48 23.0641 165.456 24.0881 165.456 26.1361V35.0961C165.456 36.4614 166.182 38.0401 167.632 39.8321C169.168 41.5387 171.046 43.0321 173.264 44.3121C178.128 47.0427 181.798 49.8161 184.272 52.6321C187.259 55.9601 188.752 59.6294 188.752 63.6401V83.8641C188.752 87.3627 187.814 90.0934 185.936 92.0561C184.059 94.0187 181.328 95.0001 177.744 95.0001H174.032V102.552H161.616V95.0001H157.904C155.344 95.0001 153.083 93.9761 151.12 91.9281C149.243 89.7947 148.304 87.1494 148.304 83.9921V60.6961L165.456 60.5681V78.1041C165.456 79.0427 165.755 79.8107 166.352 80.4081C166.95 81.0054 167.675 81.3041 168.528 81.3041C170.576 81.3041 171.6 80.2374 171.6 78.1041V65.4321C171.6 62.0187 169.638 58.9894 165.712 56.3441C164.176 55.3201 161.744 53.9547 158.416 52.2481C155.088 50.4561 152.571 48.4081 150.864 46.1041C149.158 43.7147 148.304 41.1547 148.304 38.4241V20.1201C148.304 17.0481 149.243 14.4881 151.12 12.4401C153.083 10.3067 155.43 9.24006 158.16 9.24006H161.616V2.45605Z" fill="white" fill-opacity="0.65"/>
<path fill-rule="evenodd" clip-rule="evenodd" d="M0.155273 60.6161H21.3073V77.9761C21.3073 78.4489 21.4386 78.6869 21.6175 78.8658C21.8355 79.0838 22.0503 79.1761 22.3793 79.1761C23.0652 79.1761 23.2284 79.0038 23.2401 78.9914C23.2629 78.9677 23.4513 78.7544 23.4513 77.9761V61.5921C23.4513 60.435 23.17 59.9372 22.9601 59.721C22.761 59.5159 22.3116 59.2401 21.2273 59.2401H13.7233V40.2641H21.2273C21.6953 40.2641 22.1691 40.1068 22.7015 39.6289C23.2496 39.1293 23.4513 38.6318 23.4513 38.0401V26.1361C23.4513 25.4265 23.2767 25.2538 23.2692 25.2464C23.2618 25.2389 23.0889 25.0641 22.3793 25.0641C21.6697 25.0641 21.4971 25.2386 21.4896 25.2461C21.4821 25.2535 21.3073 25.4265 21.3073 26.1361V37.6081H0.155273V18.0721C0.155273 15.3822 1.34851 12.9487 3.39656 10.8031L3.39799 10.8016C5.52435 8.5786 7.97615 7.24006 10.7313 7.24006H34.5393C37.3729 7.24006 39.8242 8.26256 41.7512 10.2966C43.6784 12.3309 44.6033 14.8898 44.6033 17.8161V40.8561C44.6033 43.4645 44.0205 45.8373 42.7823 47.9011C42.3335 48.649 41.8177 49.3118 41.234 49.8716C41.7515 50.397 42.214 51.0053 42.6234 51.68C43.9573 53.6512 44.6033 55.9127 44.6033 58.3921V87.1921C44.6033 89.964 43.5638 92.3651 41.5468 94.276L41.5445 94.2781C39.6172 96.0983 37.2404 97.0001 34.5393 97.0001H10.8593C8.03343 97.0001 5.51346 95.9873 3.37345 94.0511L3.33639 94.0176L3.30106 93.9823C1.25564 91.9369 0.155273 89.4784 0.155273 86.6801V60.6161ZM40.9393 52.7601C40.5317 52.0807 40.0835 51.5163 39.5947 51.0668C38.8557 50.3871 38.0238 49.9702 37.0993 49.8161C38.0455 49.6667 38.89 49.2702 39.6327 48.6267C40.1627 48.1676 40.6409 47.5827 41.0673 46.8721C42.0913 45.1654 42.6033 43.1601 42.6033 40.8561V17.8161C42.6033 15.3414 41.8353 13.2934 40.2993 11.6721C38.7633 10.0507 36.8433 9.24006 34.5393 9.24006H10.7313C8.68327 9.24006 6.72061 10.2214 4.84327 12.1841C3.05127 14.0614 2.15527 16.0241 2.15527 18.0721V35.6081H19.3073V26.1361C19.3073 24.0881 20.3313 23.0641 22.3793 23.0641C24.4273 23.0641 25.4513 24.0881 25.4513 26.1361V38.0401C25.4513 39.2347 24.9819 40.2587 24.0433 41.1121C23.1899 41.8801 22.2513 42.2641 21.2273 42.2641H15.7233V57.2401H21.2273C24.0433 57.2401 25.4513 58.6907 25.4513 61.5921V77.9761C25.4513 80.1094 24.4273 81.1761 22.3793 81.1761C21.5259 81.1761 20.8006 80.8774 20.2033 80.2801C19.6059 79.6827 19.3073 78.9147 19.3073 77.9761V62.6161H2.15527V86.6801C2.15527 88.8987 3.00861 90.8614 4.71527 92.5681C6.50727 94.1894 8.55527 95.0001 10.8593 95.0001H34.5393C36.7579 95.0001 38.6353 94.2747 40.1713 92.8241C41.7926 91.2881 42.6033 89.4107 42.6033 87.1921V58.3921C42.6033 56.2587 42.0486 54.3814 40.9393 52.7601ZM92.9783 17.5601V86.6801C92.9783 89.4779 92.0263 91.9379 90.1262 93.9436C88.184 95.9936 85.682 97.0001 82.7863 97.0001H59.2343C56.3408 97.0001 53.7973 95.9984 51.7128 94.0181C49.6184 92.0284 48.5303 89.5456 48.5303 86.6801V17.5601C48.5303 14.6648 49.5364 12.1631 51.5858 10.2211M51.5868 10.2202C53.6853 8.2275 56.2769 7.24006 59.2343 7.24006H82.7863C85.5549 7.24006 87.9781 8.27547 89.9605 10.2578C91.9589 12.2563 92.9783 14.7285 92.9783 17.5601M69.6823 26.1361V77.9761C69.6823 78.4489 69.8136 78.6869 69.9925 78.8658C70.2105 79.0838 70.4253 79.1761 70.7543 79.1761C71.4401 79.1761 71.6033 79.0038 71.6151 78.9914C71.6379 78.9677 71.8263 78.7544 71.8263 77.9761V26.1361C71.8263 25.4265 71.6517 25.2539 71.6442 25.2464C71.6368 25.2389 71.4639 25.0641 70.7543 25.0641C70.0446 25.0641 69.872 25.2386 69.8646 25.2461C69.8571 25.2536 69.6823 25.4265 69.6823 26.1361ZM141.353 17.5601V86.6801C141.353 89.4779 140.401 91.9379 138.501 93.9436C136.559 95.9936 134.057 97.0001 131.161 97.0001H107.609C104.716 97.0001 102.172 95.9984 100.088 94.0181C97.9934 92.0284 96.9053 89.5456 96.9053 86.6801V17.5601C96.9053 14.6653 97.911 12.164 99.9598 10.2221C102.059 8.22813 104.651 7.24006 107.609 7.24006H131.161C133.93 7.24006 136.353 8.27547 138.335 10.2578C140.334 12.2563 141.353 14.7285 141.353 17.5601ZM101.337 11.6721C99.7159 13.2081 98.9053 15.1707 98.9053 17.5601V86.6801C98.9053 88.9841 99.7586 90.9467 101.465 92.5681C103.172 94.1894 105.22 95.0001 107.609 95.0001H131.161C133.551 95.0001 135.513 94.1894 137.049 92.5681C138.585 90.9467 139.353 88.9841 139.353 86.6801V17.5601C139.353 15.2561 138.543 13.2934 136.921 11.6721C135.3 10.0507 133.38 9.24006 131.161 9.24006H107.609C105.135 9.24006 103.044 10.0507 101.337 11.6721ZM118.057 26.1361V77.9761C118.057 78.4489 118.189 78.6869 118.367 78.8658C118.585 79.0838 118.8 79.1761 119.129 79.1761C119.815 79.1761 119.978 79.0038 119.99 78.9914C120.013 78.9677 120.201 78.7544 120.201 77.9761V26.1361C120.201 25.4265 120.027 25.2539 120.019 25.2464C120.015 25.2418 119.845 25.0641 119.129 25.0641C118.42 25.0641 118.247 25.2386 118.24 25.2461C118.232 25.2536 118.057 25.4265 118.057 26.1361ZM159.616 0.456055H176.032V7.24006H177.744C181.417 7.24006 184.553 8.55223 186.995 11.1822C189.524 13.7268 190.752 16.9757 190.752 20.7601V39.4001H169.993C171.198 40.5678 172.615 41.6274 174.254 42.5739C179.219 45.3622 183.092 48.2615 185.767 51.3035C189.038 54.9513 190.752 59.0815 190.752 63.6401V83.8641C190.752 87.7236 189.709 91.0054 187.382 93.4385C185.017 95.9103 181.692 97.0001 177.744 97.0001H176.032V104.552H159.616V97.0001H157.904C154.737 97.0001 151.971 95.7065 149.676 93.3119L149.647 93.2812L149.619 93.2493C147.384 90.7095 146.304 87.5777 146.304 83.9921V58.7109L165.393 58.5685C165.141 58.3803 164.876 58.1925 164.598 58.005C163.161 57.0473 160.814 55.7254 157.504 54.0277L157.486 54.0185L157.468 54.009C153.96 52.12 151.185 49.8974 149.257 47.2945L149.247 47.2806L149.237 47.2665C147.307 44.565 146.304 41.6035 146.304 38.4241V20.1201C146.304 16.6049 147.394 13.5456 149.646 11.0886L149.648 11.0859C151.964 8.56947 154.833 7.24006 158.16 7.24006H159.616V0.456055ZM161.616 9.24006H158.16C155.43 9.24006 153.083 10.3067 151.12 12.4401C149.243 14.4881 148.304 17.0481 148.304 20.1201V38.4241C148.304 41.1547 149.158 43.7147 150.864 46.1041C152.571 48.4081 155.088 50.4561 158.416 52.2481C161.744 53.9547 164.176 55.3201 165.712 56.3441C169.638 58.9894 171.6 62.0187 171.6 65.4321V78.1041C171.6 80.2374 170.576 81.3041 168.528 81.3041C167.675 81.3041 166.95 81.0054 166.352 80.4081C165.755 79.8107 165.456 79.0427 165.456 78.1041V60.5681L148.304 60.6961V83.9921C148.304 87.1494 149.243 89.7947 151.12 91.9281C153.083 93.9761 155.344 95.0001 157.904 95.0001H161.616V102.552H174.032V95.0001H177.744C181.328 95.0001 184.059 94.0187 185.936 92.0561C187.814 90.0934 188.752 87.3627 188.752 83.8641V63.6401C188.752 59.6294 187.259 55.9601 184.272 52.6321C181.798 49.8161 178.128 47.0427 173.264 44.3121C171.046 43.0321 169.168 41.5387 167.632 39.8321C166.182 38.0401 165.456 36.4614 165.456 35.0961V26.1361C165.456 24.0881 166.48 23.0641 168.528 23.0641C170.576 23.0641 171.6 24.0881 171.6 26.1361V37.4001H188.752V20.7601C188.752 17.4321 187.686 14.7014 185.552 12.5681C183.504 10.3494 180.902 9.24006 177.744 9.24006H174.032V2.45605H161.616V9.24006ZM169.154 38.533C169.299 38.6934 169.448 38.8519 169.6 39.0085V26.1361C169.6 25.4203 169.423 25.2509 169.418 25.2463C169.413 25.2416 169.244 25.0641 168.528 25.0641C167.819 25.0641 167.646 25.2386 167.639 25.2461C167.631 25.2536 167.456 25.4265 167.456 26.1361V35.0961C167.456 35.7749 167.837 36.8953 169.154 38.533ZM167.456 60.4083V78.1041C167.456 78.5769 167.588 78.8149 167.766 78.9938C167.984 79.2118 168.199 79.3041 168.528 79.3041C169.214 79.3041 169.377 79.1318 169.389 79.1194C169.412 79.0957 169.6 78.8824 169.6 78.1041V65.4321C169.6 63.7444 168.967 62.0659 167.456 60.4083ZM90.9783 86.6801V17.5601C90.9783 15.2561 90.1676 13.2934 88.5463 11.6721C86.9249 10.0507 85.0049 9.24006 82.7863 9.24006H59.2343C56.7596 9.24006 54.6689 10.0507 52.9623 11.6721C51.3409 13.2081 50.5303 15.1707 50.5303 17.5601V86.6801C50.5303 88.9841 51.3836 90.9467 53.0903 92.5681C54.7969 94.1894 56.8449 95.0001 59.2343 95.0001H82.7863C85.1756 95.0001 87.1383 94.1894 88.6743 92.5681C90.2103 90.9467 90.9783 88.9841 90.9783 86.6801ZM67.6823 77.9761V26.1361C67.6823 24.0881 68.7063 23.0641 70.7543 23.0641C72.8023 23.0641 73.8263 24.0881 73.8263 26.1361V77.9761C73.8263 80.1094 72.8023 81.1761 70.7543 81.1761C69.9009 81.1761 69.1756 80.8774 68.5783 80.2801C67.9809 79.6827 67.6823 78.9147 67.6823 77.9761ZM116.057 77.9761V26.1361C116.057 24.0881 117.081 23.0641 119.129 23.0641C121.177 23.0641 122.201 24.0881 122.201 26.1361V77.9761C122.201 80.1094 121.177 81.1761 119.129 81.1761C118.276 81.1761 117.551 80.8774 116.953 80.2801C116.356 79.6827 116.057 78.9147 116.057 77.9761Z" fill="url(#paint0_linear_340_7)"/>
<defs>
<linearGradient id="paint0_linear_340_7" x1="95.4998" y1="-12.9999" x2="95.4998" y2="111" gradientUnits="userSpaceOnUse">
<stop stop-color="white" stop-opacity="0"/>
<stop offset="1" stop-color="white"/>
</linearGradient>
</defs>
</svg>
