<svg width="67" height="90" viewBox="0 0 67 90" fill="none" xmlns="http://www.w3.org/2000/svg">
<path d="M14.6546 88L43.0706 2.23999H52.6706L23.8706 88H14.6546ZM64.0626 55.36V80.96C64.0626 82.9227 63.3799 84.5867 62.0146 85.952C60.7346 87.232 59.1132 87.872 57.1506 87.872H45.3746C43.4119 87.872 41.7479 87.232 40.3826 85.952C39.1026 84.5867 38.4626 82.9227 38.4626 80.96V55.36C38.4626 53.3973 39.1026 51.776 40.3826 50.496C41.7479 49.1307 43.4119 48.448 45.3746 48.448H57.1506C59.1132 48.448 60.7346 49.1307 62.0146 50.496C63.3799 51.776 64.0626 53.3973 64.0626 55.36ZM48.7026 57.92V78.4C48.7026 79.0827 48.9159 79.68 49.3426 80.192C49.7692 80.704 50.4092 80.96 51.2626 80.96C51.9452 80.96 52.5426 80.704 53.0546 80.192C53.5666 79.68 53.8226 79.0827 53.8226 78.4V57.92C53.8226 56.2133 52.9692 55.36 51.2626 55.36C49.5559 55.36 48.7026 56.2133 48.7026 57.92ZM28.2226 9.15199V34.752C28.2226 36.7147 27.5399 38.3787 26.1746 39.744C24.8946 41.024 23.2732 41.664 21.3106 41.664H9.53456C7.57189 41.664 5.90789 41.024 4.54256 39.744C3.26256 38.3787 2.62256 36.7147 2.62256 34.752V9.15199C2.62256 7.18932 3.26256 5.56799 4.54256 4.28799C5.90789 2.92266 7.57189 2.23999 9.53456 2.23999H21.3106C23.2732 2.23999 24.8946 2.92266 26.1746 4.28799C27.5399 5.56799 28.2226 7.18932 28.2226 9.15199ZM12.8626 11.712V32.192C12.8626 32.8747 13.0759 33.472 13.5026 33.984C13.9292 34.496 14.5692 34.752 15.4226 34.752C16.1052 34.752 16.7026 34.496 17.2146 33.984C17.7266 33.472 17.9826 32.8747 17.9826 32.192V11.712C17.9826 10.0053 17.1292 9.15199 15.4226 9.15199C13.7159 9.15199 12.8626 10.0053 12.8626 11.712Z" fill="white" fill-opacity="0.65"/>
<path fill-rule="evenodd" clip-rule="evenodd" d="M11.8849 90L28.3538 40.2966C28.1205 40.5942 27.8654 40.8816 27.5888 41.1582C25.9002 42.8467 23.7544 43.664 21.3106 43.664H9.53456C7.09105 43.664 4.93014 42.8488 3.17468 41.2031L3.12761 41.1589L3.08348 41.1119C1.43774 39.3564 0.622559 37.1955 0.622559 34.752V9.15199C0.622559 6.70817 1.4398 4.56231 3.12835 2.87377C4.87563 1.12649 7.05126 0.23999 9.53456 0.23999H21.3106C23.774 0.23999 25.9174 1.11435 27.5893 2.87319C29.3482 4.54515 30.2226 6.68859 30.2226 9.15199V34.6567L41.6263 0.23999H55.452L39.09 48.9621C40.8162 47.294 42.9486 46.448 45.3746 46.448H57.1506C59.614 46.448 61.7574 47.3224 63.4294 49.0812C65.1882 50.7532 66.0626 52.8966 66.0626 55.36V80.96C66.0626 83.4433 65.1761 85.6189 63.4288 87.3662C61.7402 89.0547 59.5944 89.872 57.1506 89.872H45.3746C42.9311 89.872 40.7701 89.0568 39.0147 87.4111L38.9676 87.3669L38.9235 87.3199C37.2777 85.5644 36.4626 83.4035 36.4626 80.96V56.7862L25.3087 90H11.8849ZM62.0146 50.496C60.7346 49.1307 59.1132 48.448 57.1506 48.448H45.3746C43.4119 48.448 41.7479 49.1307 40.3826 50.496C39.1026 51.776 38.4626 53.3973 38.4626 55.36V80.96C38.4626 82.9227 39.1026 84.5867 40.3826 85.952C41.7479 87.232 43.4119 87.872 45.3746 87.872H57.1506C59.1132 87.872 60.7346 87.232 62.0146 85.952C63.3799 84.5867 64.0626 82.9227 64.0626 80.96V55.36C64.0626 53.3973 63.3799 51.776 62.0146 50.496ZM26.1746 4.28799C24.8946 2.92266 23.2732 2.23999 21.3106 2.23999H9.53456C7.57189 2.23999 5.90789 2.92266 4.54256 4.28799C3.26256 5.56799 2.62256 7.18932 2.62256 9.15199V34.752C2.62256 36.7147 3.26256 38.3787 4.54256 39.744C5.90789 41.024 7.57189 41.664 9.53456 41.664H21.3106C23.2732 41.664 24.8946 41.024 26.1746 39.744C27.5399 38.3787 28.2226 36.7147 28.2226 34.752V9.15199C28.2226 7.18932 27.5399 5.56799 26.1746 4.28799ZM14.6546 88H23.8706L52.6706 2.23999H43.0706L14.6546 88ZM50.7026 57.92V78.4C50.7026 78.6244 50.7583 78.765 50.8747 78.9064C50.8773 78.9076 50.8808 78.9092 50.8853 78.911C50.9202 78.925 51.0318 78.96 51.2626 78.96C51.3801 78.96 51.4782 78.94 51.6404 78.7778C51.8025 78.6156 51.8226 78.5176 51.8226 78.4V57.92C51.8226 57.6317 51.7848 57.4843 51.7612 57.4213C51.6982 57.3977 51.5508 57.36 51.2626 57.36C50.9743 57.36 50.8269 57.3977 50.7639 57.4214C50.7403 57.4843 50.7026 57.6317 50.7026 57.92ZM50.7825 57.3825C50.7826 57.3828 50.781 57.3858 50.7771 57.3911C50.7804 57.3849 50.7824 57.3822 50.7825 57.3825ZM50.7337 57.4345C50.7284 57.4385 50.7253 57.4401 50.7251 57.4399C50.7248 57.4398 50.7275 57.4378 50.7337 57.4345ZM51.8 57.4399C51.7998 57.44 51.7967 57.4384 51.7914 57.4345C51.7977 57.4378 51.8003 57.4398 51.8 57.4399ZM51.748 57.3911C51.7441 57.3858 51.7425 57.3827 51.7426 57.3825C51.7428 57.3823 51.7448 57.3849 51.748 57.3911ZM14.8626 11.712V32.192C14.8626 32.4164 14.9183 32.557 15.0347 32.6984C15.0373 32.6997 15.0408 32.7012 15.0453 32.703C15.0802 32.717 15.1918 32.752 15.4226 32.752C15.5401 32.752 15.6382 32.732 15.8003 32.5698C15.9625 32.4076 15.9826 32.3095 15.9826 32.192V11.712C15.9826 11.4237 15.9448 11.2763 15.9212 11.2133C15.8582 11.1897 15.7108 11.152 15.4226 11.152C15.1343 11.152 14.9869 11.1897 14.9239 11.2134C14.9003 11.2763 14.8626 11.4237 14.8626 11.712ZM14.9425 11.1745C14.9427 11.1747 14.941 11.1778 14.9371 11.1832C14.9403 11.177 14.9423 11.1743 14.9425 11.1745ZM14.8937 11.2265C14.8884 11.2305 14.8853 11.2321 14.8851 11.2319C14.8849 11.2317 14.8876 11.2297 14.8937 11.2265ZM15.9601 11.2319C15.9598 11.2321 15.9567 11.2305 15.9514 11.2265C15.9576 11.2297 15.9603 11.2317 15.9601 11.2319ZM15.9081 11.1832C15.9041 11.1778 15.9024 11.1747 15.9026 11.1745C15.9028 11.1743 15.9048 11.177 15.9081 11.1832ZM48.7026 78.4V57.92C48.7026 56.2133 49.5559 55.36 51.2626 55.36C52.9692 55.36 53.8226 56.2133 53.8226 57.92V78.4C53.8226 79.0827 53.5666 79.68 53.0546 80.192C52.5426 80.704 51.9452 80.96 51.2626 80.96C50.4092 80.96 49.7692 80.704 49.3426 80.192C48.9159 79.68 48.7026 79.0827 48.7026 78.4ZM12.8626 32.192V11.712C12.8626 10.0053 13.7159 9.15199 15.4226 9.15199C17.1292 9.15199 17.9826 10.0053 17.9826 11.712V32.192C17.9826 32.8747 17.7266 33.472 17.2146 33.984C16.7026 34.496 16.1052 34.752 15.4226 34.752C14.5692 34.752 13.9292 34.496 13.5026 33.984C13.0759 33.472 12.8626 32.8747 12.8626 32.192Z" fill="url(#paint0_linear_341_10)"/>
<defs>
<linearGradient id="paint0_linear_341_10" x1="34.0001" y1="-20" x2="34.0001" y2="104" gradientUnits="userSpaceOnUse">
<stop stop-color="white" stop-opacity="0"/>
<stop offset="1" stop-color="white"/>
</linearGradient>
</defs>
</svg>
