<svg width="176" height="33" viewBox="0 0 176 33" fill="none" xmlns="http://www.w3.org/2000/svg">
<path d="M36.1856 32.5H33.581V18.1477L4.27849 5.98789L0 0.5L23.6271 7.56888L35.0032 11.4758L70.0453 0.5L65.0219 6.36118L36.5572 18.1477L36.1856 32.5Z" fill="white"/>
<path d="M18.6968 32.5H22.325L35.0033 11.4758L47.4419 32.5H51.2542L35.0033 4.2211L18.6968 32.5Z" fill="#87EE40"/>
<path d="M8.46582 10.1482L12.5585 15.5431L21.4888 18.1477L18.6967 13.496L8.46582 10.1482Z" fill="#87EE40"/>
<path d="M20.7436 20.9651L16.2793 19.6628L17.5816 26.9175L20.7436 20.9651Z" fill="#87EE40"/>
<path d="M61.2417 10.1482L57.3146 15.6648L48.4688 18.543L51.1156 13.8084L61.2417 10.1482Z" fill="#87EE40"/>
<path d="M49.293 21.107L53.715 19.6696L52.6357 26.9614L49.293 21.107Z" fill="#87EE40"/>
<path d="M24.3569 32.5H30.6032L33.0068 23.291L24.3569 32.5Z" fill="#87EE40"/>
<path d="M45.761 32.5H39.5147L37.1128 23.291L45.761 32.5Z" fill="#87EE40"/>
<path d="M72.0525 8H76.3115L78.3187 24.7994H75.1122L74.8919 21.5649H73.4722L73.2519 24.7994H70.0454L72.0525 8ZM74.6961 18.7316L74.2065 11.41L73.668 18.7316H74.6961Z" fill="white"/>
<path d="M82.4281 11.059H85.2675L83.3093 24.7994H80.2742L78.316 11.059H81.1798L81.8162 19.4838L82.4281 11.059Z" fill="white"/>
<path d="M90.0449 19.7094H93.1045V23.0944C93.1045 23.5624 92.9087 23.9636 92.5171 24.2979C92.1255 24.6323 91.6359 24.7994 91.0485 24.7994H87.9399C87.4014 24.7994 86.9445 24.6323 86.5692 24.2979C86.1938 23.9636 86.0062 23.5624 86.0062 23.0944V13.0398C86.0062 12.5049 86.1857 12.0452 86.5447 11.6608C86.92 11.2596 87.3851 11.059 87.9399 11.059H91.0485C91.6033 11.059 92.0847 11.2512 92.4926 11.6357C92.9006 12.0202 93.1045 12.4882 93.1045 13.0398V18.4558H89.0658V21.8909C89.0658 22.0246 89.1066 22.1416 89.1882 22.2419C89.2698 22.3422 89.3922 22.3923 89.5554 22.3923C89.6859 22.3923 89.8001 22.3422 89.898 22.2419C89.996 22.1416 90.0449 22.0246 90.0449 21.8909V19.7094ZM89.0658 16.0487H90.0449V13.9676C90.0449 13.6332 89.8817 13.4661 89.5554 13.4661C89.229 13.4661 89.0658 13.6332 89.0658 13.9676V16.0487Z" fill="white"/>
<path d="M101.687 24.7994H98.6274V13.767C98.6274 13.4326 98.4642 13.2655 98.1378 13.2655C97.8115 13.2655 97.6483 13.4326 97.6483 13.767V24.7994H94.5887V11.059H97.6483V11.7611C97.8931 11.527 98.2031 11.3181 98.5784 11.1342C98.9701 10.9503 99.2964 10.8584 99.5575 10.8584C100.161 10.8584 100.667 11.0172 101.075 11.3348C101.483 11.6524 101.687 12.087 101.687 12.6386V24.7994Z" fill="white"/>
<path d="M103.44 8H106.476V11.059H107.626V13.4661H106.476V21.8658C106.476 22.0329 106.549 22.1834 106.696 22.3171C106.843 22.4508 107.014 22.5177 107.21 22.5177H107.65V24.7994H105.496C104.925 24.7994 104.436 24.6072 104.028 24.2227C103.636 23.8215 103.44 23.3284 103.44 22.7434V13.4661H102.657L102.682 11.059H103.44V8Z" fill="white"/>
<path d="M108.762 11.059H111.822V22.0914C111.822 22.2252 111.863 22.3422 111.944 22.4425C112.026 22.5428 112.148 22.5929 112.311 22.5929C112.442 22.5929 112.556 22.5428 112.654 22.4425C112.752 22.3422 112.801 22.2252 112.801 22.0914V11.059H115.861V24.7994H112.801V24.0973C112.638 24.3481 112.385 24.5654 112.042 24.7493C111.716 24.9164 111.349 25 110.941 25C110.337 25 109.823 24.7994 109.399 24.3982C108.974 23.9971 108.762 23.5039 108.762 22.9189V11.059Z" fill="white"/>
<path d="M117.416 11.059H120.476V12.0118C120.688 11.7276 121.023 11.4685 121.48 11.2345C121.953 10.9838 122.41 10.8584 122.85 10.8584C123.16 10.8584 123.454 10.9503 123.731 11.1342C124.025 11.3181 124.278 11.5605 124.49 11.8614C124.67 11.5939 124.972 11.3599 125.396 11.1593C125.837 10.9587 126.277 10.8584 126.718 10.8584C127.925 10.8584 128.529 11.4017 128.529 12.4882V24.7994H125.469V13.767C125.469 13.4326 125.306 13.2655 124.98 13.2655C124.653 13.2655 124.49 13.4326 124.49 13.767V24.7994H121.455V13.767C121.455 13.4326 121.292 13.2655 120.966 13.2655C120.639 13.2655 120.476 13.4326 120.476 13.767V24.7994H117.416V11.059Z" fill="white"/>
<path d="M129.865 21.59H133.145V24.7994H129.865V21.59Z" fill="white"/>
<path d="M134.354 8H141.306V10.708H139.47V24.7994H136.19V10.708H134.354V8Z" fill="white"/>
<path d="M149.566 16.6003H146.506V13.767C146.506 13.4326 146.343 13.2655 146.016 13.2655C145.69 13.2655 145.527 13.4326 145.527 13.767V24.7994H142.467V11.059H145.527V11.7611C145.772 11.527 146.082 11.3181 146.457 11.1342C146.849 10.9503 147.175 10.8584 147.436 10.8584C148.04 10.8584 148.546 11.0172 148.954 11.3348C149.362 11.6357 149.566 12.0703 149.566 12.6386V16.6003Z" fill="white"/>
<path d="M154.846 22.0914V18.6062C154.52 18.8068 154.292 18.9739 154.161 19.1077C153.965 19.3083 153.867 19.5339 153.867 19.7847V22.0914C153.867 22.2252 153.908 22.3422 153.99 22.4425C154.071 22.5428 154.194 22.5929 154.357 22.5929C154.487 22.5929 154.602 22.5428 154.7 22.4425C154.798 22.3422 154.846 22.2252 154.846 22.0914ZM157.906 24.7994H154.846V24.2729C154.618 24.7576 153.957 25 152.864 25C152.293 25 151.803 24.8078 151.395 24.4233C151.004 24.0221 150.808 23.5374 150.808 22.969V19.7094C150.808 19.2915 150.938 18.8987 151.199 18.531C151.46 18.1632 151.811 17.8791 152.252 17.6785L154.039 16.8009C154.577 16.5669 154.846 16.2493 154.846 15.8481V13.9676C154.846 13.8338 154.789 13.7168 154.675 13.6165C154.561 13.5162 154.447 13.4661 154.332 13.4661C154.022 13.4661 153.867 13.6332 153.867 13.9676V15.8481H150.808V12.8643C150.808 12.3628 151.012 11.9366 151.42 11.5855C151.828 11.2345 152.325 11.059 152.913 11.059H155.923C156.462 11.059 156.927 11.2345 157.319 11.5855C157.71 11.9366 157.906 12.3712 157.906 12.8894V24.7994Z" fill="white"/>
<path d="M166.44 8V24.7994H163.38V24.1976C163.282 24.4317 163.119 24.6239 162.89 24.7743C162.662 24.9248 162.417 25 162.156 25H161.153C160.63 25 160.198 24.7911 159.855 24.3732C159.513 23.9553 159.341 23.4287 159.341 22.7935V12.8894C159.341 12.3378 159.553 11.8614 159.978 11.4602C160.402 11.059 160.916 10.8584 161.52 10.8584C161.879 10.8584 162.238 10.9503 162.597 11.1342C162.956 11.3181 163.217 11.5438 163.38 11.8112V8H166.44ZM162.401 13.767V22.0914C162.401 22.2252 162.442 22.3422 162.523 22.4425C162.605 22.5428 162.727 22.5929 162.89 22.5929C163.021 22.5929 163.135 22.5428 163.233 22.4425C163.331 22.3422 163.38 22.2252 163.38 22.0914V13.767C163.38 13.4326 163.217 13.2655 162.89 13.2655C162.564 13.2655 162.401 13.4326 162.401 13.767Z" fill="white"/>
<path d="M171.986 19.7094H175.045V23.0944C175.045 23.5624 174.85 23.9636 174.458 24.2979C174.066 24.6323 173.577 24.7994 172.989 24.7994H169.881C169.342 24.7994 168.885 24.6323 168.51 24.2979C168.135 23.9636 167.947 23.5624 167.947 23.0944V13.0398C167.947 12.5049 168.127 12.0452 168.486 11.6608C168.861 11.2596 169.326 11.059 169.881 11.059H172.989C173.544 11.059 174.026 11.2512 174.433 11.6357C174.841 12.0202 175.045 12.4882 175.045 13.0398V18.4558H171.007V21.8909C171.007 22.0246 171.047 22.1416 171.129 22.2419C171.211 22.3422 171.333 22.3923 171.496 22.3923C171.627 22.3923 171.741 22.3422 171.839 22.2419C171.937 22.1416 171.986 22.0246 171.986 21.8909V19.7094ZM171.007 16.0487H171.986V13.9676C171.986 13.6332 171.823 13.4661 171.496 13.4661C171.17 13.4661 171.007 13.6332 171.007 13.9676V16.0487Z" fill="white"/>
</svg>
