<svg width="909" height="417" viewBox="0 0 909 417" fill="none" xmlns="http://www.w3.org/2000/svg">
<path d="M313 8C313 3.58172 316.582 0 321 0H587.247C591.665 0 595.247 3.58172 595.247 8V180C595.247 184.418 591.665 188 587.247 188H321C316.582 188 313 184.418 313 180V8Z" fill="#3A9265" fill-opacity="0.52"/>
<path fill-rule="evenodd" clip-rule="evenodd" d="M587.247 2H321C317.686 2 315 4.68629 315 8V180C315 183.314 317.686 186 321 186H587.247C590.56 186 593.247 183.314 593.247 180V8C593.247 4.68629 590.56 2 587.247 2ZM321 0C316.582 0 313 3.58172 313 8V180C313 184.418 316.582 188 321 188H587.247C591.665 188 595.247 184.418 595.247 180V8C595.247 3.58172 591.665 0 587.247 0H321Z" fill="url(#paint0_linear_208_8460)"/>
<path d="M0 234C0 229.582 3.58172 226 8 226H274.247C278.665 226 282.247 229.582 282.247 234V303C282.247 307.418 278.665 311 274.247 311H7.99999C3.58172 311 0 307.418 0 303V234Z" fill="#3A9265" fill-opacity="0.52"/>
<path fill-rule="evenodd" clip-rule="evenodd" d="M274.247 228H8C4.68629 228 2 230.686 2 234V303C2 306.314 4.68629 309 7.99999 309H274.247C277.56 309 280.247 306.314 280.247 303V234C280.247 230.686 277.56 228 274.247 228ZM8 226C3.58172 226 0 229.582 0 234V303C0 307.418 3.58172 311 7.99999 311H274.247C278.665 311 282.247 307.418 282.247 303V234C282.247 229.582 278.665 226 274.247 226H8Z" fill="url(#paint1_linear_208_8460)"/>
<path fill-rule="evenodd" clip-rule="evenodd" d="M408 330.586L408 188L410 188L410 330.586L414.657 325.929C415.048 325.538 415.681 325.538 416.071 325.929C416.462 326.319 416.462 326.953 416.071 327.343L409.707 333.707C409.317 334.098 408.684 334.098 408.293 333.707L401.929 327.343C401.539 326.953 401.539 326.319 401.929 325.929C402.32 325.538 402.953 325.538 403.343 325.929L408 330.586Z" fill="#89FF00"/>
<path fill-rule="evenodd" clip-rule="evenodd" d="M487 190.414L487 333L485 333L485 190.414L480.343 195.071C479.952 195.462 479.319 195.462 478.929 195.071C478.538 194.681 478.538 194.047 478.929 193.657L485.293 187.293C485.683 186.902 486.316 186.902 486.707 187.293L493.071 193.657C493.461 194.047 493.461 194.681 493.071 195.071C492.68 195.462 492.047 195.462 491.657 195.071L487 190.414Z" fill="white"/>
<path d="M626 234C626 229.582 629.582 226 634 226H900.247C904.665 226 908.247 229.582 908.247 234V303C908.247 307.418 904.665 311 900.247 311H634C629.582 311 626 307.418 626 303V234Z" fill="#3A9265" fill-opacity="0.52"/>
<path fill-rule="evenodd" clip-rule="evenodd" d="M900.247 228H634C630.686 228 628 230.686 628 234V303C628 306.314 630.686 309 634 309H900.247C903.56 309 906.247 306.314 906.247 303V234C906.247 230.686 903.56 228 900.247 228ZM634 226C629.582 226 626 229.582 626 234V303C626 307.418 629.582 311 634 311H900.247C904.665 311 908.247 307.418 908.247 303V234C908.247 229.582 904.665 226 900.247 226H634Z" fill="url(#paint2_linear_208_8460)"/>
<path d="M81.3921 256.88H92.7681V281H87.9441V260.768H86.2161V281H81.3921V256.88Z" fill="white"/>
<path d="M100.9 277.112V272.108C100.42 272.396 100.084 272.636 99.8919 272.828C99.6039 273.116 99.4599 273.44 99.4599 273.8V277.112C99.4599 277.304 99.5199 277.472 99.6399 277.616C99.7599 277.76 99.9399 277.832 100.18 277.832C100.372 277.832 100.54 277.76 100.684 277.616C100.828 277.472 100.9 277.304 100.9 277.112ZM105.4 281H100.9V280.244C100.564 280.94 99.5919 281.288 97.9839 281.288C97.1439 281.288 96.4239 281.012 95.8239 280.46C95.2479 279.884 94.9599 279.188 94.9599 278.372V273.692C94.9599 273.092 95.1519 272.528 95.5359 272C95.9199 271.472 96.4359 271.064 97.0839 270.776L99.7119 269.516C100.504 269.18 100.9 268.724 100.9 268.148V265.448C100.9 265.256 100.816 265.088 100.648 264.944C100.48 264.8 100.312 264.728 100.144 264.728C99.6879 264.728 99.4599 264.968 99.4599 265.448V268.148H94.9599V263.864C94.9599 263.144 95.2599 262.532 95.8599 262.028C96.4599 261.524 97.1919 261.272 98.0559 261.272H102.484C103.276 261.272 103.96 261.524 104.536 262.028C105.112 262.532 105.4 263.156 105.4 263.9V281Z" fill="white"/>
<path d="M107.619 261.272H112.119V262.244C112.431 261.884 112.863 261.584 113.415 261.344C113.967 261.104 114.531 260.984 115.107 260.984C115.899 260.984 116.583 261.248 117.159 261.776C117.759 262.28 118.059 262.904 118.059 263.648V278.3C118.059 279.188 117.783 279.908 117.231 280.46C116.679 281.012 115.947 281.288 115.035 281.288C114.291 281.288 113.667 281.192 113.163 281C112.683 280.784 112.335 280.484 112.119 280.1V285.932H107.619V261.272ZM112.119 265.16V277.112C112.119 277.304 112.179 277.472 112.299 277.616C112.419 277.76 112.599 277.832 112.839 277.832C113.031 277.832 113.199 277.76 113.343 277.616C113.487 277.472 113.559 277.304 113.559 277.112V265.16C113.559 264.68 113.319 264.44 112.839 264.44C112.359 264.44 112.119 264.68 112.119 265.16Z" fill="white"/>
<path d="M120.099 261.272H124.599V262.64C124.911 262.232 125.403 261.86 126.075 261.524C126.771 261.164 127.443 260.984 128.091 260.984C128.547 260.984 128.979 261.116 129.387 261.38C129.819 261.644 130.191 261.992 130.503 262.424C130.767 262.04 131.211 261.704 131.835 261.416C132.483 261.128 133.131 260.984 133.779 260.984C135.555 260.984 136.443 261.764 136.443 263.324V281H131.943V265.16C131.943 264.68 131.703 264.44 131.223 264.44C130.743 264.44 130.503 264.68 130.503 265.16V281H126.039V265.16C126.039 264.68 125.799 264.44 125.319 264.44C124.839 264.44 124.599 264.68 124.599 265.16V281H120.099V261.272Z" fill="white"/>
<path d="M138.697 261.272H143.197V268.904H144.637V261.272H149.137V281H144.637V272.18H143.197V281H138.697V261.272Z" fill="white"/>
<path d="M157.291 273.692H161.791V278.552C161.791 279.224 161.503 279.8 160.927 280.28C160.351 280.76 159.631 281 158.767 281H154.195C153.403 281 152.731 280.76 152.179 280.28C151.627 279.8 151.351 279.224 151.351 278.552V264.116C151.351 263.348 151.615 262.688 152.143 262.136C152.695 261.56 153.379 261.272 154.195 261.272H158.767C159.583 261.272 160.291 261.548 160.891 262.1C161.491 262.652 161.791 263.324 161.791 264.116V271.892H155.851V276.824C155.851 277.016 155.911 277.184 156.031 277.328C156.151 277.472 156.331 277.544 156.571 277.544C156.763 277.544 156.931 277.472 157.075 277.328C157.219 277.184 157.291 277.016 157.291 276.824V273.692ZM155.851 268.436H157.291V265.448C157.291 264.968 157.051 264.728 156.571 264.728C156.091 264.728 155.851 264.968 155.851 265.448V268.436Z" fill="white"/>
<path d="M163.974 261.272H168.474V262.244C168.786 261.884 169.218 261.584 169.77 261.344C170.322 261.104 170.886 260.984 171.462 260.984C172.254 260.984 172.938 261.248 173.514 261.776C174.114 262.28 174.414 262.904 174.414 263.648V278.3C174.414 279.188 174.138 279.908 173.586 280.46C173.034 281.012 172.302 281.288 171.39 281.288C170.646 281.288 170.022 281.192 169.518 281C169.038 280.784 168.69 280.484 168.474 280.1V285.932H163.974V261.272ZM168.474 265.16V277.112C168.474 277.304 168.534 277.472 168.654 277.616C168.774 277.76 168.954 277.832 169.194 277.832C169.386 277.832 169.554 277.76 169.698 277.616C169.842 277.472 169.914 277.304 169.914 277.112V265.16C169.914 264.68 169.674 264.44 169.194 264.44C168.714 264.44 168.474 264.68 168.474 265.16Z" fill="white"/>
<path d="M176.455 261.272H180.955V268.292H184.339C185.059 268.292 185.659 268.532 186.139 269.012C186.643 269.468 186.895 270.032 186.895 270.704V278.912C186.895 279.488 186.643 279.98 186.139 280.388C185.635 280.796 185.035 281 184.339 281H176.455V261.272ZM180.955 271.568V277.544H181.531C181.795 277.544 181.999 277.46 182.143 277.292C182.311 277.1 182.395 276.896 182.395 276.68V272.432C182.395 271.856 182.107 271.568 181.531 271.568H180.955ZM192.619 281H188.119V261.272H192.619V281Z" fill="white"/>
<path d="M714.839 281V268.112L712.283 281H707.459V256.88H711.743V270.344L714.299 256.88H719.123V281H714.839Z" fill="white"/>
<path d="M721.416 261.272H725.916V268.904H727.356V261.272H731.856V281H727.356V272.18H725.916V281H721.416V261.272Z" fill="white"/>
<path d="M734.143 281V261.272H742.567C743.167 261.272 743.647 261.452 744.007 261.812C744.391 262.148 744.583 262.592 744.583 263.144V267.968C744.583 268.568 744.379 269.096 743.971 269.552C743.563 270.008 743.071 270.272 742.495 270.344C743.071 270.416 743.563 270.68 743.971 271.136C744.379 271.592 744.583 272.096 744.583 272.648V279.2C744.583 279.704 744.403 280.136 744.043 280.496C743.683 280.832 743.191 281 742.567 281H734.143ZM738.643 264.584V268.652H739.291C739.819 268.652 740.083 268.4 740.083 267.896V265.304C740.083 264.824 739.831 264.584 739.327 264.584H738.643ZM738.643 272.18V277.688H739.291C739.819 277.688 740.083 277.448 740.083 276.968V272.936C740.083 272.432 739.819 272.18 739.291 272.18H738.643Z" fill="white"/>
<path d="M752.561 273.692H757.061V278.552C757.061 279.224 756.773 279.8 756.197 280.28C755.621 280.76 754.901 281 754.037 281H749.465C748.673 281 748.001 280.76 747.449 280.28C746.897 279.8 746.621 279.224 746.621 278.552V264.116C746.621 263.348 746.885 262.688 747.413 262.136C747.965 261.56 748.649 261.272 749.465 261.272H754.037C754.853 261.272 755.561 261.548 756.161 262.1C756.761 262.652 757.061 263.324 757.061 264.116V271.892H751.121V276.824C751.121 277.016 751.181 277.184 751.301 277.328C751.421 277.472 751.601 277.544 751.841 277.544C752.033 277.544 752.201 277.472 752.345 277.328C752.489 277.184 752.561 277.016 752.561 276.824V273.692ZM751.121 268.436H752.561V265.448C752.561 264.968 752.321 264.728 751.841 264.728C751.361 264.728 751.121 264.968 751.121 265.448V268.436Z" fill="white"/>
<path d="M769.612 269.336H765.112V265.448C765.112 264.968 764.872 264.728 764.392 264.728C763.912 264.728 763.672 264.968 763.672 265.448V276.824C763.672 277.016 763.732 277.184 763.852 277.328C763.972 277.472 764.152 277.544 764.392 277.544C764.584 277.544 764.752 277.472 764.896 277.328C765.04 277.184 765.112 277.016 765.112 276.824V272.648H769.612V278.552C769.612 279.224 769.348 279.8 768.82 280.28C768.292 280.76 767.632 281 766.84 281H761.692C760.996 281 760.396 280.772 759.892 280.316C759.412 279.836 759.172 279.248 759.172 278.552V263.936C759.172 263.192 759.412 262.568 759.892 262.064C760.396 261.536 760.996 261.272 761.692 261.272H766.84C767.608 261.272 768.256 261.536 768.784 262.064C769.336 262.568 769.612 263.192 769.612 263.936V269.336Z" fill="white"/>
<path d="M771.795 261.272H776.295V262.64C776.607 262.232 777.099 261.86 777.771 261.524C778.467 261.164 779.139 260.984 779.787 260.984C780.243 260.984 780.675 261.116 781.083 261.38C781.515 261.644 781.887 261.992 782.199 262.424C782.463 262.04 782.907 261.704 783.531 261.416C784.179 261.128 784.827 260.984 785.475 260.984C787.251 260.984 788.139 261.764 788.139 263.324V281H783.639V265.16C783.639 264.68 783.399 264.44 782.919 264.44C782.439 264.44 782.199 264.68 782.199 265.16V281H777.735V265.16C777.735 264.68 777.495 264.44 777.015 264.44C776.535 264.44 776.295 264.68 776.295 265.16V281H771.795V261.272Z" fill="white"/>
<path d="M790.285 278.552V263.756C790.285 263.012 790.537 262.412 791.041 261.956C791.545 261.5 792.181 261.272 792.949 261.272H798.277C798.949 261.272 799.525 261.512 800.005 261.992C800.485 262.472 800.725 263.06 800.725 263.756V278.552C800.725 279.2 800.473 279.776 799.969 280.28C799.489 280.76 798.925 281 798.277 281H792.877C792.157 281 791.545 280.76 791.041 280.28C790.537 279.8 790.285 279.224 790.285 278.552ZM794.785 265.448V276.824C794.785 277.016 794.845 277.184 794.965 277.328C795.085 277.472 795.265 277.544 795.505 277.544C795.697 277.544 795.865 277.472 796.009 277.328C796.153 277.184 796.225 277.016 796.225 276.824V265.448C796.225 264.968 795.985 264.728 795.505 264.728C795.025 264.728 794.785 264.968 794.785 265.448Z" fill="white"/>
<path d="M802.908 261.272H807.408V262.244C807.72 261.884 808.152 261.584 808.704 261.344C809.256 261.104 809.82 260.984 810.396 260.984C811.188 260.984 811.872 261.248 812.448 261.776C813.048 262.28 813.348 262.904 813.348 263.648V278.3C813.348 279.188 813.072 279.908 812.52 280.46C811.968 281.012 811.236 281.288 810.324 281.288C809.58 281.288 808.956 281.192 808.452 281C807.972 280.784 807.624 280.484 807.408 280.1V285.932H802.908V261.272ZM807.408 265.16V277.112C807.408 277.304 807.468 277.472 807.588 277.616C807.708 277.76 807.888 277.832 808.128 277.832C808.32 277.832 808.488 277.76 808.632 277.616C808.776 277.472 808.848 277.304 808.848 277.112V265.16C808.848 264.68 808.608 264.44 808.128 264.44C807.648 264.44 807.408 264.68 807.408 265.16Z" fill="white"/>
<path d="M815.389 261.272H819.889V268.292H823.273C823.993 268.292 824.593 268.532 825.073 269.012C825.577 269.468 825.829 270.032 825.829 270.704V278.912C825.829 279.488 825.577 279.98 825.073 280.388C824.569 280.796 823.969 281 823.273 281H815.389V261.272ZM819.889 271.568V277.544H820.465C820.729 277.544 820.933 277.46 821.077 277.292C821.245 277.1 821.329 276.896 821.329 276.68V272.432C821.329 271.856 821.041 271.568 820.465 271.568H819.889ZM831.553 281H827.053V261.272H831.553V281Z" fill="white"/>
<path d="M313 340C313 335.582 316.582 332 321 332H587.247C591.665 332 595.247 335.582 595.247 340V409C595.247 413.418 591.665 417 587.247 417H321C316.582 417 313 413.418 313 409V340Z" fill="#3A9265" fill-opacity="0.52"/>
<path fill-rule="evenodd" clip-rule="evenodd" d="M587.247 334H321C317.686 334 315 336.686 315 340V409C315 412.314 317.686 415 321 415H587.247C590.56 415 593.247 412.314 593.247 409V340C593.247 336.686 590.56 334 587.247 334ZM321 332C316.582 332 313 335.582 313 340V409C313 413.418 316.582 417 321 417H587.247C591.665 417 595.247 413.418 595.247 409V340C595.247 335.582 591.665 332 587.247 332H321Z" fill="url(#paint3_linear_208_8460)"/>
<path d="M358.202 362.88V365.184H362.018C362.762 365.184 363.386 365.424 363.89 365.904C364.394 366.384 364.646 366.972 364.646 367.668V381.42C364.646 382.14 364.37 382.764 363.818 383.292C363.29 383.796 362.642 384.048 361.874 384.048H358.202V387H353.378V384.048H349.238C348.614 384.048 348.074 383.796 347.618 383.292C347.162 382.788 346.934 382.164 346.934 381.42V367.668C346.934 366.948 347.138 366.36 347.546 365.904C347.978 365.424 348.542 365.184 349.238 365.184H353.378V362.88H358.202ZM353.378 380.16V369.072H352.73C352.466 369.072 352.238 369.168 352.046 369.36C351.854 369.552 351.758 369.804 351.758 370.116V379.044C351.758 379.788 352.022 380.16 352.55 380.16H353.378ZM358.202 369.072V380.16H358.886C359.174 380.16 359.402 380.052 359.57 379.836C359.738 379.62 359.822 379.356 359.822 379.044V370.116C359.822 369.828 359.726 369.588 359.534 369.396C359.366 369.18 359.162 369.072 358.922 369.072H358.202Z" fill="white"/>
<path d="M377.067 387H372.567V385.992C372.327 386.352 371.955 386.664 371.451 386.928C370.971 387.168 370.431 387.288 369.831 387.288C368.943 387.288 368.187 387 367.563 386.424C366.939 385.848 366.627 385.14 366.627 384.3V367.272H371.127V383.112C371.127 383.304 371.187 383.472 371.307 383.616C371.427 383.76 371.607 383.832 371.847 383.832C372.039 383.832 372.207 383.76 372.351 383.616C372.495 383.472 372.567 383.304 372.567 383.112V367.272H377.067V387Z" fill="white"/>
<path d="M379.355 367.272H383.855V374.904H385.295V367.272H389.795V387H385.295V378.18H383.855V387H379.355V367.272Z" fill="white"/>
<path d="M397.913 383.112V378.108C397.433 378.396 397.097 378.636 396.905 378.828C396.617 379.116 396.473 379.44 396.473 379.8V383.112C396.473 383.304 396.533 383.472 396.653 383.616C396.773 383.76 396.953 383.832 397.193 383.832C397.385 383.832 397.553 383.76 397.697 383.616C397.841 383.472 397.913 383.304 397.913 383.112ZM402.413 387H397.913V386.244C397.577 386.94 396.605 387.288 394.997 387.288C394.157 387.288 393.437 387.012 392.837 386.46C392.261 385.884 391.973 385.188 391.973 384.372V379.692C391.973 379.092 392.165 378.528 392.549 378C392.933 377.472 393.449 377.064 394.097 376.776L396.725 375.516C397.517 375.18 397.913 374.724 397.913 374.148V371.448C397.913 371.256 397.829 371.088 397.661 370.944C397.493 370.8 397.325 370.728 397.157 370.728C396.701 370.728 396.473 370.968 396.473 371.448V374.148H391.973V369.864C391.973 369.144 392.273 368.532 392.873 368.028C393.473 367.524 394.205 367.272 395.069 367.272H399.497C400.289 367.272 400.973 367.524 401.549 368.028C402.125 368.532 402.413 369.156 402.413 369.9V387Z" fill="white"/>
<path d="M404.632 367.272H409.132V374.904H410.572V367.272H415.072V387H410.572V378.18H409.132V387H404.632V367.272Z" fill="white"/>
<path d="M427.727 375.336H423.227V371.448C423.227 370.968 422.987 370.728 422.507 370.728C422.027 370.728 421.787 370.968 421.787 371.448V382.824C421.787 383.016 421.847 383.184 421.967 383.328C422.087 383.472 422.267 383.544 422.507 383.544C422.699 383.544 422.867 383.472 423.011 383.328C423.155 383.184 423.227 383.016 423.227 382.824V378.648H427.727V384.552C427.727 385.224 427.463 385.8 426.935 386.28C426.407 386.76 425.747 387 424.955 387H419.807C419.111 387 418.511 386.772 418.007 386.316C417.527 385.836 417.287 385.248 417.287 384.552V369.936C417.287 369.192 417.527 368.568 418.007 368.064C418.511 367.536 419.111 367.272 419.807 367.272H424.955C425.723 367.272 426.371 367.536 426.899 368.064C427.451 368.568 427.727 369.192 427.727 369.936V375.336Z" fill="white"/>
<path d="M429.802 384.552V369.756C429.802 369.012 430.054 368.412 430.558 367.956C431.062 367.5 431.698 367.272 432.466 367.272H437.794C438.466 367.272 439.042 367.512 439.522 367.992C440.002 368.472 440.242 369.06 440.242 369.756V384.552C440.242 385.2 439.99 385.776 439.486 386.28C439.006 386.76 438.442 387 437.794 387H432.394C431.674 387 431.062 386.76 430.558 386.28C430.054 385.8 429.802 385.224 429.802 384.552ZM434.302 371.448V382.824C434.302 383.016 434.362 383.184 434.482 383.328C434.602 383.472 434.782 383.544 435.022 383.544C435.214 383.544 435.382 383.472 435.526 383.328C435.67 383.184 435.742 383.016 435.742 382.824V371.448C435.742 370.968 435.502 370.728 435.022 370.728C434.542 370.728 434.302 370.968 434.302 371.448Z" fill="white"/>
<path d="M442.425 387V367.272H450.849C451.449 367.272 451.929 367.452 452.289 367.812C452.673 368.148 452.865 368.592 452.865 369.144V373.968C452.865 374.568 452.661 375.096 452.253 375.552C451.845 376.008 451.353 376.272 450.777 376.344C451.353 376.416 451.845 376.68 452.253 377.136C452.661 377.592 452.865 378.096 452.865 378.648V385.2C452.865 385.704 452.685 386.136 452.325 386.496C451.965 386.832 451.473 387 450.849 387H442.425ZM446.925 370.584V374.652H447.573C448.101 374.652 448.365 374.4 448.365 373.896V371.304C448.365 370.824 448.113 370.584 447.609 370.584H446.925ZM446.925 378.18V383.688H447.573C448.101 383.688 448.365 383.448 448.365 382.968V378.936C448.365 378.432 448.101 378.18 447.573 378.18H446.925Z" fill="white"/>
<path d="M454.976 367.272H459.476V374.292H462.86C463.58 374.292 464.18 374.532 464.66 375.012C465.164 375.468 465.416 376.032 465.416 376.704V384.912C465.416 385.488 465.164 385.98 464.66 386.388C464.156 386.796 463.556 387 462.86 387H454.976V367.272ZM459.476 377.568V383.544H460.052C460.316 383.544 460.52 383.46 460.664 383.292C460.832 383.1 460.916 382.896 460.916 382.68V378.432C460.916 377.856 460.628 377.568 460.052 377.568H459.476ZM471.14 387H466.64V367.272H471.14V387Z" fill="white"/>
<path d="M479.301 379.692H483.801V384.552C483.801 385.224 483.513 385.8 482.937 386.28C482.361 386.76 481.641 387 480.777 387H476.205C475.413 387 474.741 386.76 474.189 386.28C473.637 385.8 473.361 385.224 473.361 384.552V370.116C473.361 369.348 473.625 368.688 474.153 368.136C474.705 367.56 475.389 367.272 476.205 367.272H480.777C481.593 367.272 482.301 367.548 482.901 368.1C483.501 368.652 483.801 369.324 483.801 370.116V377.892H477.861V382.824C477.861 383.016 477.921 383.184 478.041 383.328C478.161 383.472 478.341 383.544 478.581 383.544C478.773 383.544 478.941 383.472 479.085 383.328C479.229 383.184 479.301 383.016 479.301 382.824V379.692ZM477.861 374.436H479.301V371.448C479.301 370.968 479.061 370.728 478.581 370.728C478.101 370.728 477.861 370.968 477.861 371.448V374.436Z" fill="white"/>
<path d="M494.632 367.272H499.132V368.244C499.444 367.884 499.876 367.584 500.428 367.344C500.98 367.104 501.544 366.984 502.12 366.984C502.912 366.984 503.596 367.248 504.172 367.776C504.772 368.28 505.072 368.904 505.072 369.648V384.3C505.072 385.188 504.796 385.908 504.244 386.46C503.692 387.012 502.96 387.288 502.048 387.288C501.304 387.288 500.68 387.192 500.176 387C499.696 386.784 499.348 386.484 499.132 386.1V391.932H494.632V367.272ZM499.132 371.16V383.112C499.132 383.304 499.192 383.472 499.312 383.616C499.432 383.76 499.612 383.832 499.852 383.832C500.044 383.832 500.212 383.76 500.356 383.616C500.5 383.472 500.572 383.304 500.572 383.112V371.16C500.572 370.68 500.332 370.44 499.852 370.44C499.372 370.44 499.132 370.68 499.132 371.16Z" fill="white"/>
<path d="M507.113 367.272H511.613V374.292H514.997C515.717 374.292 516.317 374.532 516.797 375.012C517.301 375.468 517.553 376.032 517.553 376.704V384.912C517.553 385.488 517.301 385.98 516.797 386.388C516.293 386.796 515.693 387 514.997 387H507.113V367.272ZM511.613 377.568V383.544H512.189C512.453 383.544 512.657 383.46 512.801 383.292C512.969 383.1 513.053 382.896 513.053 382.68V378.432C513.053 377.856 512.765 377.568 512.189 377.568H511.613ZM523.277 387H518.777V367.272H523.277V387Z" fill="white"/>
<path d="M525.57 367.272H530.07V374.904H531.51V367.272H536.01V387H531.51V378.18H530.07V387H525.57V367.272Z" fill="white"/>
<path d="M538.296 367.272H542.796V375.3L544.38 367.272H548.556L546.468 376.344L549.06 387H544.596L542.868 378.504L542.796 387H538.296V367.272Z" fill="white"/>
<path d="M560.793 387H556.293V385.992C556.053 386.352 555.681 386.664 555.177 386.928C554.697 387.168 554.157 387.288 553.557 387.288C552.669 387.288 551.913 387 551.289 386.424C550.665 385.848 550.353 385.14 550.353 384.3V367.272H554.853V383.112C554.853 383.304 554.913 383.472 555.033 383.616C555.153 383.76 555.333 383.832 555.573 383.832C555.765 383.832 555.933 383.76 556.077 383.616C556.221 383.472 556.293 383.304 556.293 383.112V367.272H560.793V387Z" fill="white"/>
<path d="M383.791 121H389.713L392.504 143.729H388.045L387.739 139.353H385.765L385.459 143.729H381L383.791 121ZM387.467 135.519L386.786 125.614L386.037 135.519H387.467Z" fill="white"/>
<path d="M398.218 125.139H402.166L399.443 143.729H395.223L392.5 125.139H396.482L397.367 136.537L398.218 125.139Z" fill="white"/>
<path d="M408.809 136.842H413.063V141.422C413.063 142.055 412.791 142.598 412.246 143.05C411.702 143.502 411.021 143.729 410.204 143.729H405.882C405.133 143.729 404.498 143.502 403.976 143.05C403.454 142.598 403.193 142.055 403.193 141.422V127.819C403.193 127.095 403.443 126.473 403.942 125.953C404.464 125.41 405.11 125.139 405.882 125.139H410.204C410.976 125.139 411.645 125.399 412.212 125.919C412.78 126.439 413.063 127.072 413.063 127.819V135.146H407.447V139.794C407.447 139.974 407.504 140.133 407.618 140.268C407.731 140.404 407.901 140.472 408.128 140.472C408.31 140.472 408.468 140.404 408.605 140.268C408.741 140.133 408.809 139.974 408.809 139.794V136.842ZM407.447 131.889H408.809V129.074C408.809 128.621 408.582 128.395 408.128 128.395C407.674 128.395 407.447 128.621 407.447 129.074V131.889Z" fill="white"/>
<path d="M424.997 143.729H420.743V128.802C420.743 128.35 420.516 128.124 420.062 128.124C419.608 128.124 419.381 128.35 419.381 128.802V143.729H415.127V125.139H419.381V126.088C419.722 125.772 420.153 125.489 420.674 125.24C421.219 124.992 421.673 124.867 422.036 124.867C422.875 124.867 423.579 125.082 424.146 125.512C424.713 125.941 424.997 126.529 424.997 127.276V143.729Z" fill="white"/>
<path d="M427.435 121H431.655V125.139H433.255V128.395H431.655V139.76C431.655 139.986 431.757 140.189 431.962 140.37C432.166 140.551 432.404 140.642 432.676 140.642H433.289V143.729H430.294C429.5 143.729 428.819 143.469 428.252 142.948C427.707 142.406 427.435 141.738 427.435 140.947V128.395H426.346L426.38 125.139H427.435V121Z" fill="white"/>
<path d="M434.835 125.139H439.089V140.065C439.089 140.246 439.146 140.404 439.259 140.54C439.373 140.676 439.543 140.743 439.77 140.743C439.951 140.743 440.11 140.676 440.246 140.54C440.382 140.404 440.451 140.246 440.451 140.065V125.139H444.705V143.729H440.451V142.779C440.224 143.118 439.872 143.412 439.395 143.661C438.942 143.887 438.431 144 437.864 144C437.024 144 436.31 143.729 435.72 143.186C435.13 142.643 434.835 141.976 434.835 141.184V125.139Z" fill="white"/>
<path d="M446.868 125.139H451.123V126.428C451.418 126.043 451.883 125.693 452.518 125.376C453.176 125.037 453.811 124.867 454.424 124.867C454.855 124.867 455.263 124.992 455.649 125.24C456.058 125.489 456.409 125.817 456.704 126.224C456.954 125.862 457.374 125.546 457.964 125.274C458.576 125.003 459.189 124.867 459.801 124.867C461.481 124.867 462.32 125.602 462.32 127.072V143.729H458.066V128.802C458.066 128.35 457.839 128.124 457.385 128.124C456.931 128.124 456.704 128.35 456.704 128.802V143.729H452.484V128.802C452.484 128.35 452.257 128.124 451.803 128.124C451.349 128.124 451.123 128.35 451.123 128.802V143.729H446.868V125.139Z" fill="white"/>
<path d="M464.178 139.386H468.739V143.729H464.178V139.386Z" fill="white"/>
<path d="M470.42 121H480.086V124.664H477.533V143.729H472.972V124.664H470.42V121Z" fill="white"/>
<path d="M491.571 132.636H487.316V128.802C487.316 128.35 487.09 128.124 486.636 128.124C486.182 128.124 485.955 128.35 485.955 128.802V143.729H481.701V125.139H485.955V126.088C486.295 125.772 486.727 125.489 487.248 125.24C487.793 124.992 488.247 124.867 488.61 124.867C489.449 124.867 490.153 125.082 490.72 125.512C491.287 125.919 491.571 126.507 491.571 127.276V132.636Z" fill="white"/>
<path d="M498.914 140.065V135.35C498.46 135.621 498.142 135.847 497.961 136.028C497.689 136.299 497.552 136.605 497.552 136.944V140.065C497.552 140.246 497.609 140.404 497.723 140.54C497.836 140.676 498.006 140.743 498.233 140.743C498.415 140.743 498.573 140.676 498.71 140.54C498.846 140.404 498.914 140.246 498.914 140.065ZM503.168 143.729H498.914V143.016C498.596 143.672 497.677 144 496.157 144C495.363 144 494.682 143.74 494.115 143.22C493.57 142.677 493.298 142.021 493.298 141.252V136.842C493.298 136.277 493.48 135.745 493.843 135.248C494.206 134.75 494.694 134.366 495.306 134.094L497.791 132.907C498.539 132.59 498.914 132.161 498.914 131.618V129.074C498.914 128.893 498.834 128.735 498.676 128.599C498.517 128.463 498.358 128.395 498.199 128.395C497.768 128.395 497.552 128.621 497.552 129.074V131.618H493.298V127.581C493.298 126.903 493.582 126.326 494.149 125.851C494.716 125.376 495.408 125.139 496.225 125.139H500.411C501.16 125.139 501.807 125.376 502.351 125.851C502.896 126.326 503.168 126.914 503.168 127.615V143.729Z" fill="white"/>
<path d="M515.034 121V143.729H510.779V142.914C510.643 143.231 510.416 143.491 510.099 143.695C509.781 143.898 509.441 144 509.078 144H507.682C506.956 144 506.355 143.717 505.878 143.152C505.402 142.587 505.164 141.874 505.164 141.015V127.615C505.164 126.869 505.459 126.224 506.049 125.681C506.639 125.139 507.353 124.867 508.193 124.867C508.692 124.867 509.191 124.992 509.69 125.24C510.19 125.489 510.553 125.794 510.779 126.156V121H515.034ZM509.418 128.802V140.065C509.418 140.246 509.475 140.404 509.588 140.54C509.702 140.676 509.872 140.743 510.099 140.743C510.28 140.743 510.439 140.676 510.575 140.54C510.711 140.404 510.779 140.246 510.779 140.065V128.802C510.779 128.35 510.553 128.124 510.099 128.124C509.645 128.124 509.418 128.35 509.418 128.802Z" fill="white"/>
<path d="M522.746 136.842H527V141.422C527 142.055 526.728 142.598 526.183 143.05C525.639 143.502 524.958 143.729 524.141 143.729H519.819C519.07 143.729 518.435 143.502 517.913 143.05C517.391 142.598 517.13 142.055 517.13 141.422V127.819C517.13 127.095 517.38 126.473 517.879 125.953C518.401 125.41 519.047 125.139 519.819 125.139H524.141C524.913 125.139 525.582 125.399 526.149 125.919C526.716 126.439 527 127.072 527 127.819V135.146H521.384V139.794C521.384 139.974 521.441 140.133 521.554 140.268C521.668 140.404 521.838 140.472 522.065 140.472C522.246 140.472 522.405 140.404 522.541 140.268C522.678 140.133 522.746 139.974 522.746 139.794V136.842ZM521.384 131.889H522.746V129.074C522.746 128.621 522.519 128.395 522.065 128.395C521.611 128.395 521.384 128.621 521.384 129.074V131.889Z" fill="white"/>
<path d="M456.11 106H451.063V78.1924L394.29 54.6328L386 44L431.778 57.696L453.819 65.2656L521.713 44L511.98 55.356L456.83 78.1924L456.11 106Z" fill="white"/>
<path d="M422.224 106H429.253L453.818 65.2657L477.917 106H485.304L453.818 51.2097L422.224 106Z" fill="#87EE40"/>
<path d="M402.402 62.6934L410.332 73.1461L427.634 78.1925L422.225 69.1797L402.402 62.6934Z" fill="#87EE40"/>
<path d="M426.191 83.6511L417.541 81.1279L420.064 95.1839L426.191 83.6511Z" fill="#87EE40"/>
<path d="M504.656 62.6934L497.047 73.3818L479.908 78.9583L485.036 69.7852L504.656 62.6934Z" fill="#87EE40"/>
<path d="M481.505 83.9264L490.073 81.1414L487.981 95.2693L481.505 83.9264Z" fill="#87EE40"/>
<path d="M433.192 106H445.295L449.952 88.1575L433.192 106Z" fill="#87EE40"/>
<path d="M474.663 106H462.561L457.907 88.1575L474.663 106Z" fill="#87EE40"/>
<path fill-rule="evenodd" clip-rule="evenodd" d="M307.343 71.9289L313.707 78.2928C314.098 78.6834 314.098 79.3165 313.707 79.7071L307.343 86.071C306.953 86.4615 306.319 86.4615 305.929 86.071C305.538 85.6805 305.538 85.0473 305.929 84.6568L310.586 79.9999H133V226H131V77.9999H310.586L305.929 73.3431C305.538 72.9526 305.538 72.3194 305.929 71.9289C306.319 71.5384 306.953 71.5384 307.343 71.9289Z" fill="white"/>
<path fill-rule="evenodd" clip-rule="evenodd" d="M594.293 79.7071C593.902 79.3165 593.902 78.6834 594.293 78.2928L600.657 71.9289C601.047 71.5384 601.681 71.5384 602.071 71.9289C602.462 72.3194 602.462 72.9526 602.071 73.3431L597.414 77.9999H785V226H783V79.9999H597.414L602.071 84.6568C602.462 85.0473 602.462 85.6805 602.071 86.071C601.681 86.4615 601.047 86.4615 600.657 86.071L594.293 79.7071Z" fill="white"/>
<path fill-rule="evenodd" clip-rule="evenodd" d="M743.5 119.5H595V116.5H746.5V222.379L753.485 215.393C754.071 214.808 755.021 214.808 755.607 215.393C756.192 215.979 756.192 216.929 755.607 217.515L746.061 227.061C745.475 227.646 744.525 227.646 743.939 227.061L734.393 217.515C733.808 216.929 733.808 215.979 734.393 215.393C734.979 214.808 735.929 214.808 736.515 215.393L743.5 222.379V119.5Z" fill="#89FF00"/>
<path d="M434 251C434 264.807 422.807 276 409 276C395.193 276 384 264.807 384 251C384 237.193 395.193 226 409 226C422.807 226 434 237.193 434 251Z" fill="#89FF00"/>
<path d="M157 149C157 162.807 145.807 174 132 174C118.193 174 107 162.807 107 149C107 135.193 118.193 124 132 124C145.807 124 157 135.193 157 149Z" fill="white"/>
<path d="M809 149C809 162.807 797.807 174 784 174C770.193 174 759 162.807 759 149C759 135.193 770.193 124 784 124C797.807 124 809 135.193 809 149Z" fill="white"/>
<path d="M511 251C511 264.807 499.807 276 486 276C472.193 276 461 264.807 461 251C461 237.193 472.193 226 486 226C499.807 226 511 237.193 511 251Z" fill="white"/>
<path d="M695 118C695 131.807 683.807 143 670 143C656.193 143 645 131.807 645 118C645 104.193 656.193 93 670 93C683.807 93 695 104.193 695 118Z" fill="#89FF00"/>
<path d="M406.822 238.233H410.055V240H411.022C411.844 240 412.522 240.289 413.055 240.866C413.611 241.422 413.889 242.133 413.889 243V247.333H409.422V244.4C409.422 243.866 409.155 243.6 408.622 243.6C408.089 243.6 407.822 243.866 407.822 244.4V246.733C407.822 247.089 408.011 247.5 408.389 247.966C408.789 248.411 409.278 248.8 409.855 249.133C411.122 249.844 412.078 250.566 412.722 251.3C413.5 252.166 413.889 253.122 413.889 254.166V259.433C413.889 260.344 413.644 261.055 413.155 261.566C412.667 262.078 411.955 262.333 411.022 262.333H410.055V264.3H406.822V262.333H405.855C405.189 262.333 404.6 262.066 404.089 261.533C403.6 260.978 403.355 260.289 403.355 259.466V253.4L407.822 253.366V257.933C407.822 258.178 407.9 258.378 408.055 258.533C408.211 258.689 408.4 258.766 408.622 258.766C409.155 258.766 409.422 258.489 409.422 257.933V254.633C409.422 253.744 408.911 252.955 407.889 252.266C407.489 252 406.855 251.644 405.989 251.2C405.122 250.733 404.467 250.2 404.022 249.6C403.578 248.978 403.355 248.311 403.355 247.6V242.833C403.355 242.033 403.6 241.366 404.089 240.833C404.6 240.278 405.211 240 405.922 240H406.822V238.233Z" fill="white"/>
<path d="M129.822 136.233H133.055V138H134.022C134.844 138 135.522 138.289 136.055 138.866C136.611 139.422 136.889 140.133 136.889 141V145.333H132.422V142.4C132.422 141.866 132.155 141.6 131.622 141.6C131.089 141.6 130.822 141.866 130.822 142.4V144.733C130.822 145.089 131.011 145.5 131.389 145.966C131.789 146.411 132.278 146.8 132.855 147.133C134.122 147.844 135.078 148.566 135.722 149.3C136.5 150.166 136.889 151.122 136.889 152.166V157.433C136.889 158.344 136.644 159.055 136.155 159.566C135.667 160.078 134.955 160.333 134.022 160.333H133.055V162.3H129.822V160.333H128.855C128.189 160.333 127.6 160.066 127.089 159.533C126.6 158.978 126.355 158.289 126.355 157.466V151.4L130.822 151.366V155.933C130.822 156.178 130.9 156.378 131.055 156.533C131.211 156.689 131.4 156.766 131.622 156.766C132.155 156.766 132.422 156.489 132.422 155.933V152.633C132.422 151.744 131.911 150.955 130.889 150.266C130.489 150 129.855 149.644 128.989 149.2C128.122 148.733 127.467 148.2 127.022 147.6C126.578 146.978 126.355 146.311 126.355 145.6V140.833C126.355 140.033 126.6 139.366 127.089 138.833C127.6 138.278 128.211 138 128.922 138H129.822V136.233Z" fill="#89FF00"/>
<path d="M781.822 136.233H785.055V138H786.022C786.844 138 787.522 138.289 788.055 138.866C788.611 139.422 788.889 140.133 788.889 141V145.333H784.422V142.4C784.422 141.866 784.155 141.6 783.622 141.6C783.089 141.6 782.822 141.866 782.822 142.4V144.733C782.822 145.089 783.011 145.5 783.389 145.966C783.789 146.411 784.278 146.8 784.855 147.133C786.122 147.844 787.078 148.566 787.722 149.3C788.5 150.166 788.889 151.122 788.889 152.166V157.433C788.889 158.344 788.644 159.055 788.155 159.566C787.667 160.078 786.955 160.333 786.022 160.333H785.055V162.3H781.822V160.333H780.855C780.189 160.333 779.6 160.066 779.089 159.533C778.6 158.978 778.355 158.289 778.355 157.466V151.4L782.822 151.366V155.933C782.822 156.178 782.9 156.378 783.055 156.533C783.211 156.689 783.4 156.766 783.622 156.766C784.155 156.766 784.422 156.489 784.422 155.933V152.633C784.422 151.744 783.911 150.955 782.889 150.266C782.489 150 781.855 149.644 780.989 149.2C780.122 148.733 779.467 148.2 779.022 147.6C778.578 146.978 778.355 146.311 778.355 145.6V140.833C778.355 140.033 778.6 139.366 779.089 138.833C779.6 138.278 780.211 138 780.922 138H781.822V136.233Z" fill="#89FF00"/>
<path d="M480.077 262.333L487.477 240H489.977L482.477 262.333H480.077ZM492.944 253.833V260.5C492.944 261.011 492.766 261.444 492.411 261.8C492.077 262.133 491.655 262.3 491.144 262.3H488.077C487.566 262.3 487.133 262.133 486.777 261.8C486.444 261.444 486.277 261.011 486.277 260.5V253.833C486.277 253.322 486.444 252.9 486.777 252.567C487.133 252.211 487.566 252.033 488.077 252.033H491.144C491.655 252.033 492.077 252.211 492.411 252.567C492.766 252.9 492.944 253.322 492.944 253.833ZM488.944 254.5V259.833C488.944 260.011 488.999 260.167 489.111 260.3C489.222 260.433 489.388 260.5 489.611 260.5C489.788 260.5 489.944 260.433 490.077 260.3C490.211 260.167 490.277 260.011 490.277 259.833V254.5C490.277 254.056 490.055 253.833 489.611 253.833C489.166 253.833 488.944 254.056 488.944 254.5ZM483.611 241.8V248.467C483.611 248.978 483.433 249.411 483.077 249.767C482.744 250.1 482.322 250.267 481.811 250.267H478.744C478.233 250.267 477.799 250.1 477.444 249.767C477.111 249.411 476.944 248.978 476.944 248.467V241.8C476.944 241.289 477.111 240.867 477.444 240.533C477.799 240.178 478.233 240 478.744 240H481.811C482.322 240 482.744 240.178 483.077 240.533C483.433 240.867 483.611 241.289 483.611 241.8ZM479.611 242.467V247.8C479.611 247.978 479.666 248.133 479.777 248.267C479.888 248.4 480.055 248.467 480.277 248.467C480.455 248.467 480.611 248.4 480.744 248.267C480.877 248.133 480.944 247.978 480.944 247.8V242.467C480.944 242.022 480.722 241.8 480.277 241.8C479.833 241.8 479.611 242.022 479.611 242.467Z" fill="#89FF00"/>
<path d="M664.077 129.333L671.477 107H673.977L666.477 129.333H664.077ZM676.944 120.833V127.5C676.944 128.011 676.766 128.444 676.411 128.8C676.077 129.133 675.655 129.3 675.144 129.3H672.077C671.566 129.3 671.133 129.133 670.777 128.8C670.444 128.444 670.277 128.011 670.277 127.5V120.833C670.277 120.322 670.444 119.9 670.777 119.567C671.133 119.211 671.566 119.033 672.077 119.033H675.144C675.655 119.033 676.077 119.211 676.411 119.567C676.766 119.9 676.944 120.322 676.944 120.833ZM672.944 121.5V126.833C672.944 127.011 672.999 127.167 673.111 127.3C673.222 127.433 673.388 127.5 673.611 127.5C673.788 127.5 673.944 127.433 674.077 127.3C674.211 127.167 674.277 127.011 674.277 126.833V121.5C674.277 121.056 674.055 120.833 673.611 120.833C673.166 120.833 672.944 121.056 672.944 121.5ZM667.611 108.8V115.467C667.611 115.978 667.433 116.411 667.077 116.767C666.744 117.1 666.322 117.267 665.811 117.267H662.744C662.233 117.267 661.799 117.1 661.444 116.767C661.111 116.411 660.944 115.978 660.944 115.467V108.8C660.944 108.289 661.111 107.867 661.444 107.533C661.799 107.178 662.233 107 662.744 107H665.811C666.322 107 666.744 107.178 667.077 107.533C667.433 107.867 667.611 108.289 667.611 108.8ZM663.611 109.467V114.8C663.611 114.978 663.666 115.133 663.777 115.267C663.888 115.4 664.055 115.467 664.277 115.467C664.455 115.467 664.611 115.4 664.744 115.267C664.877 115.133 664.944 114.978 664.944 114.8V109.467C664.944 109.022 664.722 108.8 664.277 108.8C663.833 108.8 663.611 109.022 663.611 109.467Z" fill="white"/>
<defs>
<linearGradient id="paint0_linear_208_8460" x1="454.123" y1="0" x2="454.123" y2="188" gradientUnits="userSpaceOnUse">
<stop stop-color="#CEFFAB" stop-opacity="0.17"/>
<stop offset="1" stop-color="#89FF00"/>
</linearGradient>
<linearGradient id="paint1_linear_208_8460" x1="141.123" y1="226" x2="141.123" y2="311" gradientUnits="userSpaceOnUse">
<stop stop-color="white"/>
<stop offset="1" stop-color="#89FF00"/>
</linearGradient>
<linearGradient id="paint2_linear_208_8460" x1="767.123" y1="226" x2="767.123" y2="311" gradientUnits="userSpaceOnUse">
<stop stop-color="white"/>
<stop offset="1" stop-color="#89FF00"/>
</linearGradient>
<linearGradient id="paint3_linear_208_8460" x1="454.123" y1="332" x2="454.123" y2="417" gradientUnits="userSpaceOnUse">
<stop stop-color="white"/>
<stop offset="1" stop-color="#89FF00"/>
</linearGradient>
</defs>
</svg>
